<mxfile host="app.diagrams.net" agent="Mozilla/5.0 (Windows NT 10.0; Win64; x64) AppleWebKit/537.36 (KHTML, like Gecko) Chrome/131.0.0.0 Safari/537.36" version="25.0.1">
  <diagram name="Stránka-1" id="yEyksK57TX6W8n2OIRlU">
    <mxGraphModel dx="1434" dy="738" grid="1" gridSize="10" guides="1" tooltips="1" connect="1" arrows="1" fold="1" page="1" pageScale="1" pageWidth="1169" pageHeight="827" math="0" shadow="0">
      <root>
        <mxCell id="0" />
        <mxCell id="1" parent="0" />
        <mxCell id="aSUEo56WCtGwiIv6NFB3-30" style="edgeStyle=orthogonalEdgeStyle;rounded=0;orthogonalLoop=1;jettySize=auto;html=1;endArrow=diamondThin;endFill=0;endSize=12;" parent="1" source="1_YAqoUewmwXnRbDIt-5-1" target="aSUEo56WCtGwiIv6NFB3-20" edge="1">
          <mxGeometry relative="1" as="geometry" />
        </mxCell>
        <mxCell id="aSUEo56WCtGwiIv6NFB3-112" style="edgeStyle=orthogonalEdgeStyle;rounded=0;orthogonalLoop=1;jettySize=auto;html=1;entryX=0.5;entryY=0;entryDx=0;entryDy=0;endArrow=diamondThin;endFill=1;endSize=12;" parent="1" source="1_YAqoUewmwXnRbDIt-5-1" target="aSUEo56WCtGwiIv6NFB3-10" edge="1">
          <mxGeometry relative="1" as="geometry" />
        </mxCell>
        <mxCell id="1_YAqoUewmwXnRbDIt-5-1" value="Nemocnice" style="swimlane;fontStyle=0;childLayout=stackLayout;horizontal=1;startSize=26;fillColor=none;horizontalStack=0;resizeParent=1;resizeParentMax=0;resizeLast=0;collapsible=1;marginBottom=0;whiteSpace=wrap;html=1;" parent="1" vertex="1">
          <mxGeometry x="579.94" y="120" width="140" height="52" as="geometry">
            <mxRectangle x="360" y="220" width="100" height="30" as="alternateBounds" />
          </mxGeometry>
        </mxCell>
        <mxCell id="1_YAqoUewmwXnRbDIt-5-87" style="edgeStyle=orthogonalEdgeStyle;rounded=0;orthogonalLoop=1;jettySize=auto;html=1;endArrow=block;endFill=0;exitX=1;exitY=0.5;exitDx=0;exitDy=0;entryX=0.5;entryY=0;entryDx=0;entryDy=0;" parent="1" source="aSUEo56WCtGwiIv6NFB3-21" target="aSUEo56WCtGwiIv6NFB3-49" edge="1">
          <mxGeometry relative="1" as="geometry">
            <Array as="points">
              <mxPoint x="1009.94" y="280" />
            </Array>
            <mxPoint x="789.94" y="291" as="sourcePoint" />
            <mxPoint x="1009.94" y="340" as="targetPoint" />
          </mxGeometry>
        </mxCell>
        <mxCell id="1_YAqoUewmwXnRbDIt-5-82" style="edgeStyle=orthogonalEdgeStyle;rounded=0;orthogonalLoop=1;jettySize=auto;html=1;endArrow=block;endFill=0;exitX=1;exitY=0.5;exitDx=0;exitDy=0;entryX=0.556;entryY=1.029;entryDx=0;entryDy=0;entryPerimeter=0;" parent="1" source="aSUEo56WCtGwiIv6NFB3-64" target="aSUEo56WCtGwiIv6NFB3-53" edge="1">
          <mxGeometry relative="1" as="geometry">
            <Array as="points">
              <mxPoint x="499.94" y="630" />
              <mxPoint x="1018.94" y="630" />
            </Array>
            <mxPoint x="489.94" y="629.9999999999998" as="sourcePoint" />
            <mxPoint x="929.9988235294118" y="505" as="targetPoint" />
          </mxGeometry>
        </mxCell>
        <mxCell id="1_YAqoUewmwXnRbDIt-5-101" value="&lt;font style=&quot;font-size: 16px;&quot;&gt;05.11.2024 Tomáš Vrba&lt;/font&gt;" style="text;html=1;align=center;verticalAlign=middle;whiteSpace=wrap;rounded=0;" parent="1" vertex="1">
          <mxGeometry x="970" y="60" width="190" height="30" as="geometry" />
        </mxCell>
        <mxCell id="aSUEo56WCtGwiIv6NFB3-87" style="edgeStyle=orthogonalEdgeStyle;rounded=0;orthogonalLoop=1;jettySize=auto;html=1;endArrow=block;endFill=0;" parent="1" source="aSUEo56WCtGwiIv6NFB3-2" target="aSUEo56WCtGwiIv6NFB3-79" edge="1">
          <mxGeometry relative="1" as="geometry" />
        </mxCell>
        <mxCell id="aSUEo56WCtGwiIv6NFB3-2" value="&lt;span style=&quot;font-weight: 400;&quot;&gt;Zaměstnanci&lt;/span&gt;" style="swimlane;fontStyle=1;align=center;verticalAlign=top;childLayout=stackLayout;horizontal=1;startSize=26;horizontalStack=0;resizeParent=1;resizeParentMax=0;resizeLast=0;collapsible=1;marginBottom=0;whiteSpace=wrap;html=1;" parent="1" vertex="1">
          <mxGeometry x="89.94" y="388" width="160" height="112" as="geometry" />
        </mxCell>
        <mxCell id="aSUEo56WCtGwiIv6NFB3-3" value="+ profese&lt;div&gt;&lt;br&gt;&lt;/div&gt;" style="text;strokeColor=none;fillColor=none;align=left;verticalAlign=top;spacingLeft=4;spacingRight=4;overflow=hidden;rotatable=0;points=[[0,0.5],[1,0.5]];portConstraint=eastwest;whiteSpace=wrap;html=1;" parent="aSUEo56WCtGwiIv6NFB3-2" vertex="1">
          <mxGeometry y="26" width="160" height="26" as="geometry" />
        </mxCell>
        <mxCell id="aSUEo56WCtGwiIv6NFB3-6" value="&lt;div&gt;+ kvalifikace&lt;/div&gt;" style="text;strokeColor=none;fillColor=none;align=left;verticalAlign=top;spacingLeft=4;spacingRight=4;overflow=hidden;rotatable=0;points=[[0,0.5],[1,0.5]];portConstraint=eastwest;whiteSpace=wrap;html=1;" parent="aSUEo56WCtGwiIv6NFB3-2" vertex="1">
          <mxGeometry y="52" width="160" height="26" as="geometry" />
        </mxCell>
        <mxCell id="aSUEo56WCtGwiIv6NFB3-4" value="" style="line;strokeWidth=1;fillColor=none;align=left;verticalAlign=middle;spacingTop=-1;spacingLeft=3;spacingRight=3;rotatable=0;labelPosition=right;points=[];portConstraint=eastwest;strokeColor=inherit;" parent="aSUEo56WCtGwiIv6NFB3-2" vertex="1">
          <mxGeometry y="78" width="160" height="8" as="geometry" />
        </mxCell>
        <mxCell id="aSUEo56WCtGwiIv6NFB3-5" value="+ method(type): type" style="text;strokeColor=none;fillColor=none;align=left;verticalAlign=top;spacingLeft=4;spacingRight=4;overflow=hidden;rotatable=0;points=[[0,0.5],[1,0.5]];portConstraint=eastwest;whiteSpace=wrap;html=1;" parent="aSUEo56WCtGwiIv6NFB3-2" vertex="1">
          <mxGeometry y="86" width="160" height="26" as="geometry" />
        </mxCell>
        <mxCell id="aSUEo56WCtGwiIv6NFB3-56" style="edgeStyle=orthogonalEdgeStyle;rounded=0;orthogonalLoop=1;jettySize=auto;html=1;entryX=0.75;entryY=0;entryDx=0;entryDy=0;endArrow=block;endFill=0;exitX=1;exitY=0.5;exitDx=0;exitDy=0;" parent="1" edge="1">
          <mxGeometry relative="1" as="geometry">
            <mxPoint x="719.94" y="145" as="sourcePoint" />
            <mxPoint x="1049.94" y="387" as="targetPoint" />
            <Array as="points">
              <mxPoint x="719.94" y="149" />
              <mxPoint x="1049.94" y="149" />
            </Array>
          </mxGeometry>
        </mxCell>
        <mxCell id="aSUEo56WCtGwiIv6NFB3-10" value="&lt;span style=&quot;font-weight: 400;&quot;&gt;Ředitelství&lt;/span&gt;" style="swimlane;fontStyle=1;align=center;verticalAlign=top;childLayout=stackLayout;horizontal=1;startSize=26;horizontalStack=0;resizeParent=1;resizeParentMax=0;resizeLast=0;collapsible=1;marginBottom=0;whiteSpace=wrap;html=1;" parent="1" vertex="1">
          <mxGeometry x="339.94" y="241" width="160" height="86" as="geometry" />
        </mxCell>
        <mxCell id="aSUEo56WCtGwiIv6NFB3-12" value="&lt;div&gt;+&amp;nbsp;&lt;/div&gt;" style="text;strokeColor=none;fillColor=none;align=left;verticalAlign=top;spacingLeft=4;spacingRight=4;overflow=hidden;rotatable=0;points=[[0,0.5],[1,0.5]];portConstraint=eastwest;whiteSpace=wrap;html=1;" parent="aSUEo56WCtGwiIv6NFB3-10" vertex="1">
          <mxGeometry y="26" width="160" height="26" as="geometry" />
        </mxCell>
        <mxCell id="aSUEo56WCtGwiIv6NFB3-13" value="" style="line;strokeWidth=1;fillColor=none;align=left;verticalAlign=middle;spacingTop=-1;spacingLeft=3;spacingRight=3;rotatable=0;labelPosition=right;points=[];portConstraint=eastwest;strokeColor=inherit;" parent="aSUEo56WCtGwiIv6NFB3-10" vertex="1">
          <mxGeometry y="52" width="160" height="8" as="geometry" />
        </mxCell>
        <mxCell id="aSUEo56WCtGwiIv6NFB3-14" value="+ method(type): type" style="text;strokeColor=none;fillColor=none;align=left;verticalAlign=top;spacingLeft=4;spacingRight=4;overflow=hidden;rotatable=0;points=[[0,0.5],[1,0.5]];portConstraint=eastwest;whiteSpace=wrap;html=1;" parent="aSUEo56WCtGwiIv6NFB3-10" vertex="1">
          <mxGeometry y="60" width="160" height="26" as="geometry" />
        </mxCell>
        <mxCell id="aSUEo56WCtGwiIv6NFB3-38" style="edgeStyle=orthogonalEdgeStyle;rounded=0;orthogonalLoop=1;jettySize=auto;html=1;endArrow=diamondThin;endFill=1;endSize=11;" parent="1" source="aSUEo56WCtGwiIv6NFB3-20" target="aSUEo56WCtGwiIv6NFB3-32" edge="1">
          <mxGeometry relative="1" as="geometry" />
        </mxCell>
        <mxCell id="aSUEo56WCtGwiIv6NFB3-20" value="&lt;span style=&quot;font-weight: 400;&quot;&gt;Budova&lt;/span&gt;" style="swimlane;fontStyle=1;align=center;verticalAlign=top;childLayout=stackLayout;horizontal=1;startSize=26;horizontalStack=0;resizeParent=1;resizeParentMax=0;resizeLast=0;collapsible=1;marginBottom=0;whiteSpace=wrap;html=1;" parent="1" vertex="1">
          <mxGeometry x="569.94" y="241" width="160" height="86" as="geometry" />
        </mxCell>
        <mxCell id="aSUEo56WCtGwiIv6NFB3-21" value="&lt;div&gt;+ název&lt;/div&gt;" style="text;strokeColor=none;fillColor=none;align=left;verticalAlign=top;spacingLeft=4;spacingRight=4;overflow=hidden;rotatable=0;points=[[0,0.5],[1,0.5]];portConstraint=eastwest;whiteSpace=wrap;html=1;" parent="aSUEo56WCtGwiIv6NFB3-20" vertex="1">
          <mxGeometry y="26" width="160" height="26" as="geometry" />
        </mxCell>
        <mxCell id="aSUEo56WCtGwiIv6NFB3-23" value="" style="line;strokeWidth=1;fillColor=none;align=left;verticalAlign=middle;spacingTop=-1;spacingLeft=3;spacingRight=3;rotatable=0;labelPosition=right;points=[];portConstraint=eastwest;strokeColor=inherit;" parent="aSUEo56WCtGwiIv6NFB3-20" vertex="1">
          <mxGeometry y="52" width="160" height="8" as="geometry" />
        </mxCell>
        <mxCell id="aSUEo56WCtGwiIv6NFB3-24" value="+ method(type): type" style="text;strokeColor=none;fillColor=none;align=left;verticalAlign=top;spacingLeft=4;spacingRight=4;overflow=hidden;rotatable=0;points=[[0,0.5],[1,0.5]];portConstraint=eastwest;whiteSpace=wrap;html=1;" parent="aSUEo56WCtGwiIv6NFB3-20" vertex="1">
          <mxGeometry y="60" width="160" height="26" as="geometry" />
        </mxCell>
        <mxCell id="aSUEo56WCtGwiIv6NFB3-32" value="&lt;span style=&quot;font-weight: 400;&quot;&gt;Oddělení&lt;/span&gt;" style="swimlane;fontStyle=1;align=center;verticalAlign=top;childLayout=stackLayout;horizontal=1;startSize=26;horizontalStack=0;resizeParent=1;resizeParentMax=0;resizeLast=0;collapsible=1;marginBottom=0;whiteSpace=wrap;html=1;" parent="1" vertex="1">
          <mxGeometry x="569.94" y="389" width="160" height="112" as="geometry" />
        </mxCell>
        <mxCell id="aSUEo56WCtGwiIv6NFB3-40" value="&lt;div&gt;+ název oddělení&lt;/div&gt;&lt;div&gt;&lt;br&gt;&lt;/div&gt;" style="text;strokeColor=none;fillColor=none;align=left;verticalAlign=top;spacingLeft=4;spacingRight=4;overflow=hidden;rotatable=0;points=[[0,0.5],[1,0.5]];portConstraint=eastwest;whiteSpace=wrap;html=1;" parent="aSUEo56WCtGwiIv6NFB3-32" vertex="1">
          <mxGeometry y="26" width="160" height="26" as="geometry" />
        </mxCell>
        <mxCell id="aSUEo56WCtGwiIv6NFB3-33" value="&lt;div&gt;+ zaměření&lt;/div&gt;&lt;div&gt;&lt;br&gt;&lt;/div&gt;" style="text;strokeColor=none;fillColor=none;align=left;verticalAlign=top;spacingLeft=4;spacingRight=4;overflow=hidden;rotatable=0;points=[[0,0.5],[1,0.5]];portConstraint=eastwest;whiteSpace=wrap;html=1;" parent="aSUEo56WCtGwiIv6NFB3-32" vertex="1">
          <mxGeometry y="52" width="160" height="26" as="geometry" />
        </mxCell>
        <mxCell id="aSUEo56WCtGwiIv6NFB3-34" value="" style="line;strokeWidth=1;fillColor=none;align=left;verticalAlign=middle;spacingTop=-1;spacingLeft=3;spacingRight=3;rotatable=0;labelPosition=right;points=[];portConstraint=eastwest;strokeColor=inherit;" parent="aSUEo56WCtGwiIv6NFB3-32" vertex="1">
          <mxGeometry y="78" width="160" height="8" as="geometry" />
        </mxCell>
        <mxCell id="aSUEo56WCtGwiIv6NFB3-35" value="+ method(type): type" style="text;strokeColor=none;fillColor=none;align=left;verticalAlign=top;spacingLeft=4;spacingRight=4;overflow=hidden;rotatable=0;points=[[0,0.5],[1,0.5]];portConstraint=eastwest;whiteSpace=wrap;html=1;" parent="aSUEo56WCtGwiIv6NFB3-32" vertex="1">
          <mxGeometry y="86" width="160" height="26" as="geometry" />
        </mxCell>
        <mxCell id="aSUEo56WCtGwiIv6NFB3-39" style="edgeStyle=orthogonalEdgeStyle;rounded=0;orthogonalLoop=1;jettySize=auto;html=1;endArrow=block;endFill=0;entryX=0;entryY=0.5;entryDx=0;entryDy=0;" parent="1" source="aSUEo56WCtGwiIv6NFB3-45" target="aSUEo56WCtGwiIv6NFB3-51" edge="1">
          <mxGeometry relative="1" as="geometry">
            <mxPoint x="849.94" y="460" as="targetPoint" />
            <Array as="points">
              <mxPoint x="459.94" y="530" />
              <mxPoint x="809.94" y="530" />
              <mxPoint x="809.94" y="453" />
            </Array>
          </mxGeometry>
        </mxCell>
        <mxCell id="aSUEo56WCtGwiIv6NFB3-47" style="edgeStyle=orthogonalEdgeStyle;rounded=0;orthogonalLoop=1;jettySize=auto;html=1;endArrow=none;endFill=0;entryX=0.5;entryY=0;entryDx=0;entryDy=0;" parent="1" source="aSUEo56WCtGwiIv6NFB3-41" target="aSUEo56WCtGwiIv6NFB3-63" edge="1">
          <mxGeometry relative="1" as="geometry">
            <mxPoint x="419.94" y="590.9999999999998" as="targetPoint" />
          </mxGeometry>
        </mxCell>
        <mxCell id="aSUEo56WCtGwiIv6NFB3-41" value="&lt;span style=&quot;font-weight: 400;&quot;&gt;Pracoviště&lt;/span&gt;" style="swimlane;fontStyle=1;align=center;verticalAlign=top;childLayout=stackLayout;horizontal=1;startSize=26;horizontalStack=0;resizeParent=1;resizeParentMax=0;resizeLast=0;collapsible=1;marginBottom=0;whiteSpace=wrap;html=1;" parent="1" vertex="1">
          <mxGeometry x="339.94" y="389" width="160" height="112" as="geometry" />
        </mxCell>
        <mxCell id="aSUEo56WCtGwiIv6NFB3-42" value="&lt;div&gt;+ název pracoviště&lt;/div&gt;&lt;div&gt;&lt;br&gt;&lt;/div&gt;" style="text;strokeColor=none;fillColor=none;align=left;verticalAlign=top;spacingLeft=4;spacingRight=4;overflow=hidden;rotatable=0;points=[[0,0.5],[1,0.5]];portConstraint=eastwest;whiteSpace=wrap;html=1;" parent="aSUEo56WCtGwiIv6NFB3-41" vertex="1">
          <mxGeometry y="26" width="160" height="26" as="geometry" />
        </mxCell>
        <mxCell id="aSUEo56WCtGwiIv6NFB3-43" value="&lt;div&gt;+ označení bloku&lt;/div&gt;" style="text;strokeColor=none;fillColor=none;align=left;verticalAlign=top;spacingLeft=4;spacingRight=4;overflow=hidden;rotatable=0;points=[[0,0.5],[1,0.5]];portConstraint=eastwest;whiteSpace=wrap;html=1;" parent="aSUEo56WCtGwiIv6NFB3-41" vertex="1">
          <mxGeometry y="52" width="160" height="26" as="geometry" />
        </mxCell>
        <mxCell id="aSUEo56WCtGwiIv6NFB3-44" value="" style="line;strokeWidth=1;fillColor=none;align=left;verticalAlign=middle;spacingTop=-1;spacingLeft=3;spacingRight=3;rotatable=0;labelPosition=right;points=[];portConstraint=eastwest;strokeColor=inherit;" parent="aSUEo56WCtGwiIv6NFB3-41" vertex="1">
          <mxGeometry y="78" width="160" height="8" as="geometry" />
        </mxCell>
        <mxCell id="aSUEo56WCtGwiIv6NFB3-45" value="+ method(type): type" style="text;strokeColor=none;fillColor=none;align=left;verticalAlign=top;spacingLeft=4;spacingRight=4;overflow=hidden;rotatable=0;points=[[0,0.5],[1,0.5]];portConstraint=eastwest;whiteSpace=wrap;html=1;" parent="aSUEo56WCtGwiIv6NFB3-41" vertex="1">
          <mxGeometry y="86" width="160" height="26" as="geometry" />
        </mxCell>
        <mxCell id="aSUEo56WCtGwiIv6NFB3-46" style="edgeStyle=orthogonalEdgeStyle;rounded=0;orthogonalLoop=1;jettySize=auto;html=1;endArrow=diamondThin;endFill=0;endSize=12;" parent="1" source="aSUEo56WCtGwiIv6NFB3-33" target="aSUEo56WCtGwiIv6NFB3-43" edge="1">
          <mxGeometry relative="1" as="geometry" />
        </mxCell>
        <mxCell id="aSUEo56WCtGwiIv6NFB3-48" style="edgeStyle=orthogonalEdgeStyle;rounded=0;orthogonalLoop=1;jettySize=auto;html=1;endArrow=diamondThin;endFill=1;endSize=12;" parent="1" source="aSUEo56WCtGwiIv6NFB3-43" target="aSUEo56WCtGwiIv6NFB3-6" edge="1">
          <mxGeometry relative="1" as="geometry" />
        </mxCell>
        <mxCell id="aSUEo56WCtGwiIv6NFB3-49" value="&lt;span style=&quot;font-weight: 400;&quot;&gt;Adresa&lt;/span&gt;" style="swimlane;fontStyle=1;align=center;verticalAlign=top;childLayout=stackLayout;horizontal=1;startSize=26;horizontalStack=0;resizeParent=1;resizeParentMax=0;resizeLast=0;collapsible=1;marginBottom=0;whiteSpace=wrap;html=1;" parent="1" vertex="1">
          <mxGeometry x="929.94" y="388" width="160" height="138" as="geometry" />
        </mxCell>
        <mxCell id="aSUEo56WCtGwiIv6NFB3-50" value="&lt;div&gt;+ město&lt;/div&gt;" style="text;strokeColor=none;fillColor=none;align=left;verticalAlign=top;spacingLeft=4;spacingRight=4;overflow=hidden;rotatable=0;points=[[0,0.5],[1,0.5]];portConstraint=eastwest;whiteSpace=wrap;html=1;" parent="aSUEo56WCtGwiIv6NFB3-49" vertex="1">
          <mxGeometry y="26" width="160" height="26" as="geometry" />
        </mxCell>
        <mxCell id="aSUEo56WCtGwiIv6NFB3-51" value="+ ulice" style="text;strokeColor=none;fillColor=none;align=left;verticalAlign=top;spacingLeft=4;spacingRight=4;overflow=hidden;rotatable=0;points=[[0,0.5],[1,0.5]];portConstraint=eastwest;whiteSpace=wrap;html=1;" parent="aSUEo56WCtGwiIv6NFB3-49" vertex="1">
          <mxGeometry y="52" width="160" height="26" as="geometry" />
        </mxCell>
        <mxCell id="aSUEo56WCtGwiIv6NFB3-54" value="+ ČP, ČO" style="text;strokeColor=none;fillColor=none;align=left;verticalAlign=top;spacingLeft=4;spacingRight=4;overflow=hidden;rotatable=0;points=[[0,0.5],[1,0.5]];portConstraint=eastwest;whiteSpace=wrap;html=1;" parent="aSUEo56WCtGwiIv6NFB3-49" vertex="1">
          <mxGeometry y="78" width="160" height="26" as="geometry" />
        </mxCell>
        <mxCell id="aSUEo56WCtGwiIv6NFB3-52" value="" style="line;strokeWidth=1;fillColor=none;align=left;verticalAlign=middle;spacingTop=-1;spacingLeft=3;spacingRight=3;rotatable=0;labelPosition=right;points=[];portConstraint=eastwest;strokeColor=inherit;" parent="aSUEo56WCtGwiIv6NFB3-49" vertex="1">
          <mxGeometry y="104" width="160" height="8" as="geometry" />
        </mxCell>
        <mxCell id="aSUEo56WCtGwiIv6NFB3-53" value="+ method(type): type" style="text;strokeColor=none;fillColor=none;align=left;verticalAlign=top;spacingLeft=4;spacingRight=4;overflow=hidden;rotatable=0;points=[[0,0.5],[1,0.5]];portConstraint=eastwest;whiteSpace=wrap;html=1;" parent="aSUEo56WCtGwiIv6NFB3-49" vertex="1">
          <mxGeometry y="112" width="160" height="26" as="geometry" />
        </mxCell>
        <mxCell id="aSUEo56WCtGwiIv6NFB3-57" style="edgeStyle=orthogonalEdgeStyle;rounded=0;orthogonalLoop=1;jettySize=auto;html=1;entryX=1;entryY=0.5;entryDx=0;entryDy=0;endArrow=block;endFill=0;" parent="1" source="aSUEo56WCtGwiIv6NFB3-3" target="aSUEo56WCtGwiIv6NFB3-50" edge="1">
          <mxGeometry relative="1" as="geometry">
            <mxPoint x="1119.94" y="430" as="targetPoint" />
            <Array as="points">
              <mxPoint x="60" y="427" />
              <mxPoint x="60" y="1110" />
              <mxPoint x="1260" y="1110" />
              <mxPoint x="1260" y="427" />
            </Array>
          </mxGeometry>
        </mxCell>
        <mxCell id="aSUEo56WCtGwiIv6NFB3-58" value="&lt;span style=&quot;font-weight: 400;&quot;&gt;Diagnózy&lt;/span&gt;" style="swimlane;fontStyle=1;align=center;verticalAlign=top;childLayout=stackLayout;horizontal=1;startSize=26;horizontalStack=0;resizeParent=1;resizeParentMax=0;resizeLast=0;collapsible=1;marginBottom=0;whiteSpace=wrap;html=1;" parent="1" vertex="1">
          <mxGeometry x="338.94" y="735" width="160" height="112" as="geometry" />
        </mxCell>
        <mxCell id="aSUEo56WCtGwiIv6NFB3-59" value="&lt;div&gt;+ název&amp;nbsp;&lt;/div&gt;&lt;div&gt;&lt;br&gt;&lt;/div&gt;" style="text;strokeColor=none;fillColor=none;align=left;verticalAlign=top;spacingLeft=4;spacingRight=4;overflow=hidden;rotatable=0;points=[[0,0.5],[1,0.5]];portConstraint=eastwest;whiteSpace=wrap;html=1;" parent="aSUEo56WCtGwiIv6NFB3-58" vertex="1">
          <mxGeometry y="26" width="160" height="26" as="geometry" />
        </mxCell>
        <mxCell id="aSUEo56WCtGwiIv6NFB3-60" value="&lt;div&gt;+ léčba&lt;/div&gt;" style="text;strokeColor=none;fillColor=none;align=left;verticalAlign=top;spacingLeft=4;spacingRight=4;overflow=hidden;rotatable=0;points=[[0,0.5],[1,0.5]];portConstraint=eastwest;whiteSpace=wrap;html=1;" parent="aSUEo56WCtGwiIv6NFB3-58" vertex="1">
          <mxGeometry y="52" width="160" height="26" as="geometry" />
        </mxCell>
        <mxCell id="aSUEo56WCtGwiIv6NFB3-61" value="" style="line;strokeWidth=1;fillColor=none;align=left;verticalAlign=middle;spacingTop=-1;spacingLeft=3;spacingRight=3;rotatable=0;labelPosition=right;points=[];portConstraint=eastwest;strokeColor=inherit;" parent="aSUEo56WCtGwiIv6NFB3-58" vertex="1">
          <mxGeometry y="78" width="160" height="8" as="geometry" />
        </mxCell>
        <mxCell id="aSUEo56WCtGwiIv6NFB3-62" value="+ method(type): type" style="text;strokeColor=none;fillColor=none;align=left;verticalAlign=top;spacingLeft=4;spacingRight=4;overflow=hidden;rotatable=0;points=[[0,0.5],[1,0.5]];portConstraint=eastwest;whiteSpace=wrap;html=1;" parent="aSUEo56WCtGwiIv6NFB3-58" vertex="1">
          <mxGeometry y="86" width="160" height="26" as="geometry" />
        </mxCell>
        <mxCell id="aSUEo56WCtGwiIv6NFB3-71" style="edgeStyle=orthogonalEdgeStyle;rounded=0;orthogonalLoop=1;jettySize=auto;html=1;endArrow=diamondThin;endFill=0;endSize=12;" parent="1" source="aSUEo56WCtGwiIv6NFB3-63" target="aSUEo56WCtGwiIv6NFB3-58" edge="1">
          <mxGeometry relative="1" as="geometry" />
        </mxCell>
        <mxCell id="aSUEo56WCtGwiIv6NFB3-63" value="&lt;span style=&quot;font-weight: 400;&quot;&gt;Pacienti&lt;/span&gt;" style="swimlane;fontStyle=1;align=center;verticalAlign=top;childLayout=stackLayout;horizontal=1;startSize=26;horizontalStack=0;resizeParent=1;resizeParentMax=0;resizeLast=0;collapsible=1;marginBottom=0;whiteSpace=wrap;html=1;" parent="1" vertex="1">
          <mxGeometry x="339.94" y="587" width="160" height="86" as="geometry" />
        </mxCell>
        <mxCell id="aSUEo56WCtGwiIv6NFB3-64" value="&lt;div&gt;&lt;br&gt;&lt;/div&gt;" style="text;strokeColor=none;fillColor=none;align=left;verticalAlign=top;spacingLeft=4;spacingRight=4;overflow=hidden;rotatable=0;points=[[0,0.5],[1,0.5]];portConstraint=eastwest;whiteSpace=wrap;html=1;" parent="aSUEo56WCtGwiIv6NFB3-63" vertex="1">
          <mxGeometry y="26" width="160" height="26" as="geometry" />
        </mxCell>
        <mxCell id="aSUEo56WCtGwiIv6NFB3-66" value="" style="line;strokeWidth=1;fillColor=none;align=left;verticalAlign=middle;spacingTop=-1;spacingLeft=3;spacingRight=3;rotatable=0;labelPosition=right;points=[];portConstraint=eastwest;strokeColor=inherit;" parent="aSUEo56WCtGwiIv6NFB3-63" vertex="1">
          <mxGeometry y="52" width="160" height="8" as="geometry" />
        </mxCell>
        <mxCell id="aSUEo56WCtGwiIv6NFB3-67" value="+ method(type): type" style="text;strokeColor=none;fillColor=none;align=left;verticalAlign=top;spacingLeft=4;spacingRight=4;overflow=hidden;rotatable=0;points=[[0,0.5],[1,0.5]];portConstraint=eastwest;whiteSpace=wrap;html=1;" parent="aSUEo56WCtGwiIv6NFB3-63" vertex="1">
          <mxGeometry y="60" width="160" height="26" as="geometry" />
        </mxCell>
        <mxCell id="aSUEo56WCtGwiIv6NFB3-79" value="&lt;span style=&quot;font-weight: 400;&quot;&gt;Osobní údaje&lt;/span&gt;" style="swimlane;fontStyle=1;align=center;verticalAlign=top;childLayout=stackLayout;horizontal=1;startSize=26;horizontalStack=0;resizeParent=1;resizeParentMax=0;resizeLast=0;collapsible=1;marginBottom=0;whiteSpace=wrap;html=1;" parent="1" vertex="1">
          <mxGeometry x="89.94" y="540" width="160" height="190" as="geometry" />
        </mxCell>
        <mxCell id="aSUEo56WCtGwiIv6NFB3-80" value="+ jméno&lt;div&gt;&lt;br&gt;&lt;/div&gt;" style="text;strokeColor=none;fillColor=none;align=left;verticalAlign=top;spacingLeft=4;spacingRight=4;overflow=hidden;rotatable=0;points=[[0,0.5],[1,0.5]];portConstraint=eastwest;whiteSpace=wrap;html=1;" parent="aSUEo56WCtGwiIv6NFB3-79" vertex="1">
          <mxGeometry y="26" width="160" height="26" as="geometry" />
        </mxCell>
        <mxCell id="aSUEo56WCtGwiIv6NFB3-81" value="&lt;div&gt;+ pohlaví&lt;/div&gt;" style="text;strokeColor=none;fillColor=none;align=left;verticalAlign=top;spacingLeft=4;spacingRight=4;overflow=hidden;rotatable=0;points=[[0,0.5],[1,0.5]];portConstraint=eastwest;whiteSpace=wrap;html=1;" parent="aSUEo56WCtGwiIv6NFB3-79" vertex="1">
          <mxGeometry y="52" width="160" height="26" as="geometry" />
        </mxCell>
        <mxCell id="aSUEo56WCtGwiIv6NFB3-84" value="&lt;div&gt;+ vzdělání&lt;/div&gt;" style="text;strokeColor=none;fillColor=none;align=left;verticalAlign=top;spacingLeft=4;spacingRight=4;overflow=hidden;rotatable=0;points=[[0,0.5],[1,0.5]];portConstraint=eastwest;whiteSpace=wrap;html=1;" parent="aSUEo56WCtGwiIv6NFB3-79" vertex="1">
          <mxGeometry y="78" width="160" height="26" as="geometry" />
        </mxCell>
        <mxCell id="aSUEo56WCtGwiIv6NFB3-85" value="&lt;div&gt;+ věk&lt;/div&gt;&lt;div&gt;&lt;br&gt;&lt;/div&gt;" style="text;strokeColor=none;fillColor=none;align=left;verticalAlign=top;spacingLeft=4;spacingRight=4;overflow=hidden;rotatable=0;points=[[0,0.5],[1,0.5]];portConstraint=eastwest;whiteSpace=wrap;html=1;" parent="aSUEo56WCtGwiIv6NFB3-79" vertex="1">
          <mxGeometry y="104" width="160" height="26" as="geometry" />
        </mxCell>
        <mxCell id="aSUEo56WCtGwiIv6NFB3-86" value="&lt;div&gt;+ titul&lt;/div&gt;&lt;div&gt;&lt;br&gt;&lt;/div&gt;" style="text;strokeColor=none;fillColor=none;align=left;verticalAlign=top;spacingLeft=4;spacingRight=4;overflow=hidden;rotatable=0;points=[[0,0.5],[1,0.5]];portConstraint=eastwest;whiteSpace=wrap;html=1;" parent="aSUEo56WCtGwiIv6NFB3-79" vertex="1">
          <mxGeometry y="130" width="160" height="26" as="geometry" />
        </mxCell>
        <mxCell id="aSUEo56WCtGwiIv6NFB3-82" value="" style="line;strokeWidth=1;fillColor=none;align=left;verticalAlign=middle;spacingTop=-1;spacingLeft=3;spacingRight=3;rotatable=0;labelPosition=right;points=[];portConstraint=eastwest;strokeColor=inherit;" parent="aSUEo56WCtGwiIv6NFB3-79" vertex="1">
          <mxGeometry y="156" width="160" height="8" as="geometry" />
        </mxCell>
        <mxCell id="aSUEo56WCtGwiIv6NFB3-83" value="+ method(type): type" style="text;strokeColor=none;fillColor=none;align=left;verticalAlign=top;spacingLeft=4;spacingRight=4;overflow=hidden;rotatable=0;points=[[0,0.5],[1,0.5]];portConstraint=eastwest;whiteSpace=wrap;html=1;" parent="aSUEo56WCtGwiIv6NFB3-79" vertex="1">
          <mxGeometry y="164" width="160" height="26" as="geometry" />
        </mxCell>
        <mxCell id="aSUEo56WCtGwiIv6NFB3-88" style="edgeStyle=orthogonalEdgeStyle;rounded=0;orthogonalLoop=1;jettySize=auto;html=1;endArrow=block;endFill=0;" parent="1" source="aSUEo56WCtGwiIv6NFB3-64" target="aSUEo56WCtGwiIv6NFB3-84" edge="1">
          <mxGeometry relative="1" as="geometry">
            <Array as="points">
              <mxPoint x="319.94" y="631" />
              <mxPoint x="319.94" y="631" />
            </Array>
          </mxGeometry>
        </mxCell>
        <mxCell id="aSUEo56WCtGwiIv6NFB3-130" style="edgeStyle=orthogonalEdgeStyle;rounded=0;orthogonalLoop=1;jettySize=auto;html=1;endArrow=block;endFill=0;" parent="1" source="aSUEo56WCtGwiIv6NFB3-89" target="aSUEo56WCtGwiIv6NFB3-83" edge="1">
          <mxGeometry relative="1" as="geometry">
            <Array as="points">
              <mxPoint x="1010" y="1090" />
              <mxPoint x="170" y="1090" />
            </Array>
          </mxGeometry>
        </mxCell>
        <mxCell id="aSUEo56WCtGwiIv6NFB3-89" value="&lt;span style=&quot;font-weight: 400;&quot;&gt;Lékař&lt;/span&gt;" style="swimlane;fontStyle=1;align=center;verticalAlign=top;childLayout=stackLayout;horizontal=1;startSize=26;horizontalStack=0;resizeParent=1;resizeParentMax=0;resizeLast=0;collapsible=1;marginBottom=0;whiteSpace=wrap;html=1;" parent="1" vertex="1">
          <mxGeometry x="929.94" y="849" width="160" height="86" as="geometry" />
        </mxCell>
        <mxCell id="aSUEo56WCtGwiIv6NFB3-90" value="&lt;div&gt;&lt;br&gt;&lt;/div&gt;" style="text;strokeColor=none;fillColor=none;align=left;verticalAlign=top;spacingLeft=4;spacingRight=4;overflow=hidden;rotatable=0;points=[[0,0.5],[1,0.5]];portConstraint=eastwest;whiteSpace=wrap;html=1;" parent="aSUEo56WCtGwiIv6NFB3-89" vertex="1">
          <mxGeometry y="26" width="160" height="26" as="geometry" />
        </mxCell>
        <mxCell id="aSUEo56WCtGwiIv6NFB3-92" value="" style="line;strokeWidth=1;fillColor=none;align=left;verticalAlign=middle;spacingTop=-1;spacingLeft=3;spacingRight=3;rotatable=0;labelPosition=right;points=[];portConstraint=eastwest;strokeColor=inherit;" parent="aSUEo56WCtGwiIv6NFB3-89" vertex="1">
          <mxGeometry y="52" width="160" height="8" as="geometry" />
        </mxCell>
        <mxCell id="aSUEo56WCtGwiIv6NFB3-93" value="+ method(type): type" style="text;strokeColor=none;fillColor=none;align=left;verticalAlign=top;spacingLeft=4;spacingRight=4;overflow=hidden;rotatable=0;points=[[0,0.5],[1,0.5]];portConstraint=eastwest;whiteSpace=wrap;html=1;" parent="aSUEo56WCtGwiIv6NFB3-89" vertex="1">
          <mxGeometry y="60" width="160" height="26" as="geometry" />
        </mxCell>
        <mxCell id="aSUEo56WCtGwiIv6NFB3-120" style="edgeStyle=orthogonalEdgeStyle;rounded=0;orthogonalLoop=1;jettySize=auto;html=1;entryX=1;entryY=0.5;entryDx=0;entryDy=0;endArrow=block;endFill=0;" parent="1" source="aSUEo56WCtGwiIv6NFB3-94" target="aSUEo56WCtGwiIv6NFB3-54" edge="1">
          <mxGeometry relative="1" as="geometry">
            <Array as="points">
              <mxPoint x="1119.94" y="723" />
              <mxPoint x="1119.94" y="479" />
            </Array>
          </mxGeometry>
        </mxCell>
        <mxCell id="aSUEo56WCtGwiIv6NFB3-131" style="edgeStyle=orthogonalEdgeStyle;rounded=0;orthogonalLoop=1;jettySize=auto;html=1;endArrow=block;endFill=0;" parent="1" source="aSUEo56WCtGwiIv6NFB3-94" edge="1">
          <mxGeometry relative="1" as="geometry">
            <mxPoint x="249.94" y="700" as="targetPoint" />
            <Array as="points">
              <mxPoint x="759.94" y="700" />
              <mxPoint x="759.94" y="700" />
            </Array>
          </mxGeometry>
        </mxCell>
        <mxCell id="aSUEo56WCtGwiIv6NFB3-149" style="edgeStyle=orthogonalEdgeStyle;rounded=0;orthogonalLoop=1;jettySize=auto;html=1;entryX=0.5;entryY=0;entryDx=0;entryDy=0;endSize=12;endArrow=diamondThin;endFill=1;" parent="1" source="aSUEo56WCtGwiIv6NFB3-94" target="aSUEo56WCtGwiIv6NFB3-72" edge="1">
          <mxGeometry relative="1" as="geometry">
            <Array as="points">
              <mxPoint x="713.94" y="717" />
            </Array>
          </mxGeometry>
        </mxCell>
        <mxCell id="aSUEo56WCtGwiIv6NFB3-94" value="&lt;span style=&quot;font-weight: 400;&quot;&gt;Střední zdravotnický personál&lt;/span&gt;" style="swimlane;fontStyle=1;align=center;verticalAlign=top;childLayout=stackLayout;horizontal=1;startSize=40;horizontalStack=0;resizeParent=1;resizeParentMax=0;resizeLast=0;collapsible=1;marginBottom=0;whiteSpace=wrap;html=1;" parent="1" vertex="1">
          <mxGeometry x="919.94" y="673" width="160" height="100" as="geometry" />
        </mxCell>
        <mxCell id="aSUEo56WCtGwiIv6NFB3-95" value="&lt;div&gt;&lt;br&gt;&lt;/div&gt;" style="text;strokeColor=none;fillColor=none;align=left;verticalAlign=top;spacingLeft=4;spacingRight=4;overflow=hidden;rotatable=0;points=[[0,0.5],[1,0.5]];portConstraint=eastwest;whiteSpace=wrap;html=1;" parent="aSUEo56WCtGwiIv6NFB3-94" vertex="1">
          <mxGeometry y="40" width="160" height="26" as="geometry" />
        </mxCell>
        <mxCell id="aSUEo56WCtGwiIv6NFB3-96" value="" style="line;strokeWidth=1;fillColor=none;align=left;verticalAlign=middle;spacingTop=-1;spacingLeft=3;spacingRight=3;rotatable=0;labelPosition=right;points=[];portConstraint=eastwest;strokeColor=inherit;" parent="aSUEo56WCtGwiIv6NFB3-94" vertex="1">
          <mxGeometry y="66" width="160" height="8" as="geometry" />
        </mxCell>
        <mxCell id="aSUEo56WCtGwiIv6NFB3-97" value="+ method(type): type" style="text;strokeColor=none;fillColor=none;align=left;verticalAlign=top;spacingLeft=4;spacingRight=4;overflow=hidden;rotatable=0;points=[[0,0.5],[1,0.5]];portConstraint=eastwest;whiteSpace=wrap;html=1;" parent="aSUEo56WCtGwiIv6NFB3-94" vertex="1">
          <mxGeometry y="74" width="160" height="26" as="geometry" />
        </mxCell>
        <mxCell id="aSUEo56WCtGwiIv6NFB3-72" value="&lt;span style=&quot;font-weight: 400;&quot;&gt;Operace&lt;/span&gt;" style="swimlane;fontStyle=1;align=center;verticalAlign=top;childLayout=stackLayout;horizontal=1;startSize=26;horizontalStack=0;resizeParent=1;resizeParentMax=0;resizeLast=0;collapsible=1;marginBottom=0;whiteSpace=wrap;html=1;" parent="1" vertex="1">
          <mxGeometry x="633.94" y="737" width="160" height="112" as="geometry" />
        </mxCell>
        <mxCell id="aSUEo56WCtGwiIv6NFB3-73" value="&lt;div&gt;+ postup&amp;nbsp;&lt;/div&gt;&lt;div&gt;&lt;br&gt;&lt;/div&gt;" style="text;strokeColor=none;fillColor=none;align=left;verticalAlign=top;spacingLeft=4;spacingRight=4;overflow=hidden;rotatable=0;points=[[0,0.5],[1,0.5]];portConstraint=eastwest;whiteSpace=wrap;html=1;" parent="aSUEo56WCtGwiIv6NFB3-72" vertex="1">
          <mxGeometry y="26" width="160" height="26" as="geometry" />
        </mxCell>
        <mxCell id="aSUEo56WCtGwiIv6NFB3-74" value="&lt;div&gt;+ prognóza&lt;/div&gt;" style="text;strokeColor=none;fillColor=none;align=left;verticalAlign=top;spacingLeft=4;spacingRight=4;overflow=hidden;rotatable=0;points=[[0,0.5],[1,0.5]];portConstraint=eastwest;whiteSpace=wrap;html=1;" parent="aSUEo56WCtGwiIv6NFB3-72" vertex="1">
          <mxGeometry y="52" width="160" height="26" as="geometry" />
        </mxCell>
        <mxCell id="aSUEo56WCtGwiIv6NFB3-75" value="" style="line;strokeWidth=1;fillColor=none;align=left;verticalAlign=middle;spacingTop=-1;spacingLeft=3;spacingRight=3;rotatable=0;labelPosition=right;points=[];portConstraint=eastwest;strokeColor=inherit;" parent="aSUEo56WCtGwiIv6NFB3-72" vertex="1">
          <mxGeometry y="78" width="160" height="8" as="geometry" />
        </mxCell>
        <mxCell id="aSUEo56WCtGwiIv6NFB3-76" value="+ method(type): type" style="text;strokeColor=none;fillColor=none;align=left;verticalAlign=top;spacingLeft=4;spacingRight=4;overflow=hidden;rotatable=0;points=[[0,0.5],[1,0.5]];portConstraint=eastwest;whiteSpace=wrap;html=1;" parent="aSUEo56WCtGwiIv6NFB3-72" vertex="1">
          <mxGeometry y="86" width="160" height="26" as="geometry" />
        </mxCell>
        <mxCell id="aSUEo56WCtGwiIv6NFB3-98" style="edgeStyle=orthogonalEdgeStyle;rounded=0;orthogonalLoop=1;jettySize=auto;html=1;endArrow=diamondThin;endFill=1;strokeWidth=1;jumpSize=9;endSize=15;" parent="1" source="aSUEo56WCtGwiIv6NFB3-60" target="aSUEo56WCtGwiIv6NFB3-74" edge="1">
          <mxGeometry relative="1" as="geometry">
            <Array as="points">
              <mxPoint x="529.94" y="790" />
              <mxPoint x="529.94" y="790" />
            </Array>
          </mxGeometry>
        </mxCell>
        <mxCell id="aSUEo56WCtGwiIv6NFB3-100" value="1" style="text;html=1;align=center;verticalAlign=middle;whiteSpace=wrap;rounded=0;rotation=0;" parent="1" vertex="1">
          <mxGeometry x="482.94" y="763" width="60" height="30" as="geometry" />
        </mxCell>
        <mxCell id="aSUEo56WCtGwiIv6NFB3-101" value="1" style="text;html=1;align=center;verticalAlign=middle;whiteSpace=wrap;rounded=0;rotation=0;" parent="1" vertex="1">
          <mxGeometry x="581.94" y="762" width="60" height="30" as="geometry" />
        </mxCell>
        <mxCell id="aSUEo56WCtGwiIv6NFB3-103" value="1" style="text;html=1;align=center;verticalAlign=middle;whiteSpace=wrap;rounded=0;rotation=0;" parent="1" vertex="1">
          <mxGeometry x="779.94" y="792" width="60" height="30" as="geometry" />
        </mxCell>
        <mxCell id="aSUEo56WCtGwiIv6NFB3-104" value="2...5" style="text;html=1;align=center;verticalAlign=middle;whiteSpace=wrap;rounded=0;rotation=0;" parent="1" vertex="1">
          <mxGeometry x="879.94" y="860" width="60" height="30" as="geometry" />
        </mxCell>
        <mxCell id="aSUEo56WCtGwiIv6NFB3-107" value="2...10" style="text;html=1;align=center;verticalAlign=middle;whiteSpace=wrap;rounded=0;rotation=0;" parent="1" vertex="1">
          <mxGeometry x="863.94" y="716" width="60" height="30" as="geometry" />
        </mxCell>
        <mxCell id="aSUEo56WCtGwiIv6NFB3-110" value="1" style="text;html=1;align=center;verticalAlign=middle;whiteSpace=wrap;rounded=0;rotation=0;" parent="1" vertex="1">
          <mxGeometry x="633.94" y="168" width="60" height="30" as="geometry" />
        </mxCell>
        <mxCell id="aSUEo56WCtGwiIv6NFB3-111" value="1...*" style="text;html=1;align=center;verticalAlign=middle;whiteSpace=wrap;rounded=0;rotation=0;" parent="1" vertex="1">
          <mxGeometry x="641.94" y="220" width="60" height="30" as="geometry" />
        </mxCell>
        <mxCell id="aSUEo56WCtGwiIv6NFB3-113" value="1" style="text;html=1;align=center;verticalAlign=middle;whiteSpace=wrap;rounded=0;rotation=0;" parent="1" vertex="1">
          <mxGeometry x="534.94" y="142" width="60" height="30" as="geometry" />
        </mxCell>
        <mxCell id="aSUEo56WCtGwiIv6NFB3-114" value="1" style="text;html=1;align=center;verticalAlign=middle;whiteSpace=wrap;rounded=0;rotation=0;" parent="1" vertex="1">
          <mxGeometry x="406.94" y="214" width="60" height="30" as="geometry" />
        </mxCell>
        <mxCell id="aSUEo56WCtGwiIv6NFB3-115" value="1...*" style="text;html=1;align=center;verticalAlign=middle;whiteSpace=wrap;rounded=0;rotation=0;" parent="1" vertex="1">
          <mxGeometry x="639.94" y="323" width="60" height="30" as="geometry" />
        </mxCell>
        <mxCell id="aSUEo56WCtGwiIv6NFB3-116" value="1...*" style="text;html=1;align=center;verticalAlign=middle;whiteSpace=wrap;rounded=0;rotation=0;" parent="1" vertex="1">
          <mxGeometry x="639.94" y="359" width="60" height="30" as="geometry" />
        </mxCell>
        <mxCell id="aSUEo56WCtGwiIv6NFB3-117" style="edgeStyle=orthogonalEdgeStyle;rounded=0;orthogonalLoop=1;jettySize=auto;html=1;entryX=0.302;entryY=1.009;entryDx=0;entryDy=0;entryPerimeter=0;endArrow=block;endFill=0;" parent="1" source="aSUEo56WCtGwiIv6NFB3-93" target="aSUEo56WCtGwiIv6NFB3-83" edge="1">
          <mxGeometry relative="1" as="geometry" />
        </mxCell>
        <mxCell id="aSUEo56WCtGwiIv6NFB3-118" style="edgeStyle=orthogonalEdgeStyle;rounded=0;orthogonalLoop=1;jettySize=auto;html=1;entryX=1;entryY=0.5;entryDx=0;entryDy=0;endArrow=block;endFill=0;" parent="1" source="aSUEo56WCtGwiIv6NFB3-90" target="aSUEo56WCtGwiIv6NFB3-51" edge="1">
          <mxGeometry relative="1" as="geometry">
            <Array as="points">
              <mxPoint x="1159.94" y="888" />
              <mxPoint x="1159.94" y="453" />
            </Array>
          </mxGeometry>
        </mxCell>
        <mxCell id="aSUEo56WCtGwiIv6NFB3-119" style="edgeStyle=orthogonalEdgeStyle;rounded=0;orthogonalLoop=1;jettySize=auto;html=1;entryX=0.986;entryY=0.103;entryDx=0;entryDy=0;entryPerimeter=0;endArrow=block;endFill=0;" parent="1" source="aSUEo56WCtGwiIv6NFB3-94" target="aSUEo56WCtGwiIv6NFB3-79" edge="1">
          <mxGeometry relative="1" as="geometry">
            <Array as="points">
              <mxPoint x="999.94" y="560" />
            </Array>
          </mxGeometry>
        </mxCell>
        <mxCell id="aSUEo56WCtGwiIv6NFB3-121" value="1" style="text;html=1;align=center;verticalAlign=middle;whiteSpace=wrap;rounded=0;rotation=0;" parent="1" vertex="1">
          <mxGeometry x="527.94" y="427" width="60" height="30" as="geometry" />
        </mxCell>
        <mxCell id="aSUEo56WCtGwiIv6NFB3-123" value="1..5" style="text;html=1;align=center;verticalAlign=middle;whiteSpace=wrap;rounded=0;rotation=0;" parent="1" vertex="1">
          <mxGeometry x="486.94" y="427" width="60" height="30" as="geometry" />
        </mxCell>
        <mxCell id="aSUEo56WCtGwiIv6NFB3-124" value="1..*" style="text;html=1;align=center;verticalAlign=middle;whiteSpace=wrap;rounded=0;rotation=0;" parent="1" vertex="1">
          <mxGeometry x="293.94" y="427" width="60" height="30" as="geometry" />
        </mxCell>
        <mxCell id="aSUEo56WCtGwiIv6NFB3-125" value="1..*" style="text;html=1;align=center;verticalAlign=middle;whiteSpace=wrap;rounded=0;rotation=0;" parent="1" vertex="1">
          <mxGeometry x="239.94" y="427" width="60" height="30" as="geometry" />
        </mxCell>
        <mxCell id="aSUEo56WCtGwiIv6NFB3-126" value="1" style="text;html=1;align=center;verticalAlign=middle;whiteSpace=wrap;rounded=0;rotation=0;" parent="1" vertex="1">
          <mxGeometry x="402.94" y="670" width="60" height="30" as="geometry" />
        </mxCell>
        <mxCell id="aSUEo56WCtGwiIv6NFB3-128" value="1..*" style="text;html=1;align=center;verticalAlign=middle;whiteSpace=wrap;rounded=0;rotation=0;" parent="1" vertex="1">
          <mxGeometry x="410.94" y="710" width="60" height="30" as="geometry" />
        </mxCell>
        <mxCell id="aSUEo56WCtGwiIv6NFB3-132" value="1" style="text;html=1;align=center;verticalAlign=middle;whiteSpace=wrap;rounded=0;rotation=0;" parent="1" vertex="1">
          <mxGeometry x="402.94" y="496" width="60" height="30" as="geometry" />
        </mxCell>
        <mxCell id="aSUEo56WCtGwiIv6NFB3-133" value="1..*" style="text;html=1;align=center;verticalAlign=middle;whiteSpace=wrap;rounded=0;rotation=0;" parent="1" vertex="1">
          <mxGeometry x="405.94" y="561" width="60" height="30" as="geometry" />
        </mxCell>
        <mxCell id="aSUEo56WCtGwiIv6NFB3-136" style="edgeStyle=orthogonalEdgeStyle;rounded=0;orthogonalLoop=1;jettySize=auto;html=1;endArrow=none;endFill=0;" parent="1" source="aSUEo56WCtGwiIv6NFB3-21" target="aSUEo56WCtGwiIv6NFB3-12" edge="1">
          <mxGeometry relative="1" as="geometry" />
        </mxCell>
        <mxCell id="aSUEo56WCtGwiIv6NFB3-137" value="1" style="text;html=1;align=center;verticalAlign=middle;whiteSpace=wrap;rounded=0;rotation=0;" parent="1" vertex="1">
          <mxGeometry x="478.94" y="255" width="60" height="30" as="geometry" />
        </mxCell>
        <mxCell id="aSUEo56WCtGwiIv6NFB3-138" value="1" style="text;html=1;align=center;verticalAlign=middle;whiteSpace=wrap;rounded=0;rotation=0;" parent="1" vertex="1">
          <mxGeometry x="528.94" y="255" width="60" height="30" as="geometry" />
        </mxCell>
        <mxCell id="aSUEo56WCtGwiIv6NFB3-141" style="edgeStyle=orthogonalEdgeStyle;rounded=0;orthogonalLoop=1;jettySize=auto;html=1;endArrow=none;endFill=0;" parent="1" source="aSUEo56WCtGwiIv6NFB3-12" target="aSUEo56WCtGwiIv6NFB3-2" edge="1">
          <mxGeometry relative="1" as="geometry" />
        </mxCell>
        <mxCell id="aSUEo56WCtGwiIv6NFB3-142" value="1" style="text;html=1;align=center;verticalAlign=middle;whiteSpace=wrap;rounded=0;rotation=0;" parent="1" vertex="1">
          <mxGeometry x="293.94" y="255" width="60" height="30" as="geometry" />
        </mxCell>
        <mxCell id="aSUEo56WCtGwiIv6NFB3-143" value="1...*" style="text;html=1;align=center;verticalAlign=middle;whiteSpace=wrap;rounded=0;rotation=0;" parent="1" vertex="1">
          <mxGeometry x="159.94" y="362" width="60" height="30" as="geometry" />
        </mxCell>
        <mxCell id="aSUEo56WCtGwiIv6NFB3-145" style="edgeStyle=orthogonalEdgeStyle;rounded=0;orthogonalLoop=1;jettySize=auto;html=1;entryX=0.983;entryY=-0.152;entryDx=0;entryDy=0;entryPerimeter=0;endArrow=diamondThin;endFill=1;strokeWidth=1;endSize=13;" parent="1" source="aSUEo56WCtGwiIv6NFB3-90" target="aSUEo56WCtGwiIv6NFB3-76" edge="1">
          <mxGeometry relative="1" as="geometry" />
        </mxCell>
        <mxCell id="aSUEo56WCtGwiIv6NFB3-147" value="1" style="text;html=1;align=center;verticalAlign=middle;whiteSpace=wrap;rounded=0;rotation=0;" parent="1" vertex="1">
          <mxGeometry x="701.94" y="714" width="60" height="30" as="geometry" />
        </mxCell>
        <mxCell id="aSUEo56WCtGwiIv6NFB3-152" style="edgeStyle=orthogonalEdgeStyle;rounded=0;orthogonalLoop=1;jettySize=auto;html=1;entryX=0.25;entryY=0;entryDx=0;entryDy=0;endArrow=diamondThin;endFill=1;endSize=12;" parent="1" source="aSUEo56WCtGwiIv6NFB3-67" target="aSUEo56WCtGwiIv6NFB3-72" edge="1">
          <mxGeometry relative="1" as="geometry" />
        </mxCell>
        <mxCell id="aSUEo56WCtGwiIv6NFB3-153" value="1" style="text;html=1;align=center;verticalAlign=middle;whiteSpace=wrap;rounded=0;rotation=0;" parent="1" vertex="1">
          <mxGeometry x="478.94" y="660" width="60" height="30" as="geometry" />
        </mxCell>
        <mxCell id="aSUEo56WCtGwiIv6NFB3-154" value="1" style="text;html=1;align=center;verticalAlign=middle;whiteSpace=wrap;rounded=0;rotation=0;" parent="1" vertex="1">
          <mxGeometry x="628.94" y="713" width="60" height="30" as="geometry" />
        </mxCell>
        <mxCell id="aSUEo56WCtGwiIv6NFB3-157" value="&lt;font style=&quot;font-size: 22px;&quot;&gt;Stavové diagramy: Fakultní nemocnice&lt;/font&gt;" style="text;align=center;fontStyle=1;verticalAlign=middle;spacingLeft=3;spacingRight=3;strokeColor=none;rotatable=0;points=[[0,0.5],[1,0.5]];portConstraint=eastwest;html=1;" parent="1" vertex="1">
          <mxGeometry x="150.00000000000006" y="1200" width="180" height="60" as="geometry" />
        </mxCell>
        <mxCell id="aSUEo56WCtGwiIv6NFB3-158" value="&lt;span style=&quot;font-size: 22px;&quot;&gt;Diagram tříd: Fakultní nemocnice&amp;nbsp;&lt;/span&gt;" style="text;align=center;fontStyle=1;verticalAlign=middle;spacingLeft=3;spacingRight=3;strokeColor=none;rotatable=0;points=[[0,0.5],[1,0.5]];portConstraint=eastwest;html=1;" parent="1" vertex="1">
          <mxGeometry x="139.94000000000005" y="40" width="180" height="60" as="geometry" />
        </mxCell>
        <mxCell id="aSUEo56WCtGwiIv6NFB3-160" value="&lt;font style=&quot;font-size: 18px;&quot;&gt;Třída: Lékař&lt;/font&gt;" style="text;align=center;fontStyle=1;verticalAlign=middle;spacingLeft=3;spacingRight=3;strokeColor=none;rotatable=0;points=[[0,0.5],[1,0.5]];portConstraint=eastwest;html=1;" parent="1" vertex="1">
          <mxGeometry x="5.684341886080802e-14" y="1230" width="180" height="60" as="geometry" />
        </mxCell>
        <mxCell id="aSUEo56WCtGwiIv6NFB3-174" style="edgeStyle=orthogonalEdgeStyle;rounded=0;orthogonalLoop=1;jettySize=auto;html=1;entryX=1;entryY=0.5;entryDx=0;entryDy=0;endArrow=none;endFill=0;" parent="1" source="aSUEo56WCtGwiIv6NFB3-161" target="aSUEo56WCtGwiIv6NFB3-40" edge="1">
          <mxGeometry relative="1" as="geometry">
            <Array as="points">
              <mxPoint x="850" y="1030" />
              <mxPoint x="850" y="428" />
            </Array>
          </mxGeometry>
        </mxCell>
        <mxCell id="aSUEo56WCtGwiIv6NFB3-161" value="&lt;span style=&quot;font-weight: 400;&quot;&gt;Medik&lt;/span&gt;" style="swimlane;fontStyle=1;align=center;verticalAlign=top;childLayout=stackLayout;horizontal=1;startSize=26;horizontalStack=0;resizeParent=1;resizeParentMax=0;resizeLast=0;collapsible=1;marginBottom=0;whiteSpace=wrap;html=1;" parent="1" vertex="1">
          <mxGeometry x="641.94" y="935" width="160" height="112" as="geometry" />
        </mxCell>
        <mxCell id="aSUEo56WCtGwiIv6NFB3-165" value="&lt;div&gt;+ znalosti&lt;/div&gt;" style="text;strokeColor=none;fillColor=none;align=left;verticalAlign=top;spacingLeft=4;spacingRight=4;overflow=hidden;rotatable=0;points=[[0,0.5],[1,0.5]];portConstraint=eastwest;whiteSpace=wrap;html=1;" parent="aSUEo56WCtGwiIv6NFB3-161" vertex="1">
          <mxGeometry y="26" width="160" height="26" as="geometry" />
        </mxCell>
        <mxCell id="aSUEo56WCtGwiIv6NFB3-167" value="&lt;div&gt;+ ročník&lt;/div&gt;" style="text;strokeColor=none;fillColor=none;align=left;verticalAlign=top;spacingLeft=4;spacingRight=4;overflow=hidden;rotatable=0;points=[[0,0.5],[1,0.5]];portConstraint=eastwest;whiteSpace=wrap;html=1;" parent="aSUEo56WCtGwiIv6NFB3-161" vertex="1">
          <mxGeometry y="52" width="160" height="26" as="geometry" />
        </mxCell>
        <mxCell id="aSUEo56WCtGwiIv6NFB3-163" value="" style="line;strokeWidth=1;fillColor=none;align=left;verticalAlign=middle;spacingTop=-1;spacingLeft=3;spacingRight=3;rotatable=0;labelPosition=right;points=[];portConstraint=eastwest;strokeColor=inherit;" parent="aSUEo56WCtGwiIv6NFB3-161" vertex="1">
          <mxGeometry y="78" width="160" height="8" as="geometry" />
        </mxCell>
        <mxCell id="aSUEo56WCtGwiIv6NFB3-164" value="+ method(type): type" style="text;strokeColor=none;fillColor=none;align=left;verticalAlign=top;spacingLeft=4;spacingRight=4;overflow=hidden;rotatable=0;points=[[0,0.5],[1,0.5]];portConstraint=eastwest;whiteSpace=wrap;html=1;" parent="aSUEo56WCtGwiIv6NFB3-161" vertex="1">
          <mxGeometry y="86" width="160" height="26" as="geometry" />
        </mxCell>
        <mxCell id="aSUEo56WCtGwiIv6NFB3-166" style="edgeStyle=orthogonalEdgeStyle;rounded=0;orthogonalLoop=1;jettySize=auto;html=1;entryX=0.696;entryY=0.941;entryDx=0;entryDy=0;entryPerimeter=0;endArrow=block;endFill=0;exitX=-0.019;exitY=0.102;exitDx=0;exitDy=0;exitPerimeter=0;" parent="1" source="aSUEo56WCtGwiIv6NFB3-167" target="aSUEo56WCtGwiIv6NFB3-83" edge="1">
          <mxGeometry relative="1" as="geometry">
            <mxPoint x="570" y="990" as="sourcePoint" />
            <Array as="points">
              <mxPoint x="201" y="990" />
            </Array>
          </mxGeometry>
        </mxCell>
        <mxCell id="aSUEo56WCtGwiIv6NFB3-168" style="edgeStyle=orthogonalEdgeStyle;rounded=0;orthogonalLoop=1;jettySize=auto;html=1;entryX=1.004;entryY=0.097;entryDx=0;entryDy=0;entryPerimeter=0;endArrow=block;endFill=0;exitX=1;exitY=0.5;exitDx=0;exitDy=0;" parent="1" source="aSUEo56WCtGwiIv6NFB3-167" target="aSUEo56WCtGwiIv6NFB3-49" edge="1">
          <mxGeometry relative="1" as="geometry">
            <mxPoint x="950" y="1020" as="sourcePoint" />
            <Array as="points">
              <mxPoint x="1330" y="1000" />
              <mxPoint x="1330" y="401" />
            </Array>
          </mxGeometry>
        </mxCell>
        <mxCell id="aSUEo56WCtGwiIv6NFB3-171" style="edgeStyle=orthogonalEdgeStyle;rounded=0;orthogonalLoop=1;jettySize=auto;html=1;entryX=1;entryY=0.5;entryDx=0;entryDy=0;endArrow=diamondThin;endFill=1;strokeWidth=1;endSize=12;" parent="1" source="aSUEo56WCtGwiIv6NFB3-93" edge="1">
          <mxGeometry relative="1" as="geometry">
            <mxPoint x="801.94" y="973.9999999999998" as="targetPoint" />
            <Array as="points">
              <mxPoint x="950" y="974" />
            </Array>
          </mxGeometry>
        </mxCell>
        <mxCell id="aSUEo56WCtGwiIv6NFB3-172" value="&lt;span style=&quot;color: rgb(0, 0, 0); font-family: Helvetica; font-size: 12px; font-style: normal; font-variant-ligatures: normal; font-variant-caps: normal; font-weight: 400; letter-spacing: normal; orphans: 2; text-align: center; text-indent: 0px; text-transform: none; widows: 2; word-spacing: 0px; -webkit-text-stroke-width: 0px; white-space: normal; background-color: rgb(251, 251, 251); text-decoration-thickness: initial; text-decoration-style: initial; text-decoration-color: initial; display: inline !important; float: none;&quot;&gt;1&lt;/span&gt;" style="text;whiteSpace=wrap;html=1;" parent="1" vertex="1">
          <mxGeometry x="932.94" y="935" width="60" height="40" as="geometry" />
        </mxCell>
        <mxCell id="aSUEo56WCtGwiIv6NFB3-173" value="&lt;span style=&quot;color: rgb(0, 0, 0); font-family: Helvetica; font-size: 12px; font-style: normal; font-variant-ligatures: normal; font-variant-caps: normal; font-weight: 400; letter-spacing: normal; orphans: 2; text-align: center; text-indent: 0px; text-transform: none; widows: 2; word-spacing: 0px; -webkit-text-stroke-width: 0px; white-space: normal; background-color: rgb(251, 251, 251); text-decoration-thickness: initial; text-decoration-style: initial; text-decoration-color: initial; display: inline !important; float: none;&quot;&gt;1...*&lt;/span&gt;" style="text;whiteSpace=wrap;html=1;" parent="1" vertex="1">
          <mxGeometry x="810" y="945" width="60" height="40" as="geometry" />
        </mxCell>
        <mxCell id="aSUEo56WCtGwiIv6NFB3-176" value="1" style="text;html=1;align=center;verticalAlign=middle;whiteSpace=wrap;rounded=0;rotation=0;" parent="1" vertex="1">
          <mxGeometry x="711.94" y="423" width="60" height="30" as="geometry" />
        </mxCell>
        <mxCell id="aSUEo56WCtGwiIv6NFB3-177" value="1...*" style="text;html=1;align=center;verticalAlign=middle;whiteSpace=wrap;rounded=0;rotation=0;" parent="1" vertex="1">
          <mxGeometry x="793.94" y="1030" width="60" height="30" as="geometry" />
        </mxCell>
        <mxCell id="aSUEo56WCtGwiIv6NFB3-181" value="" style="ellipse;html=1;shape=startState;fillColor=#000000;strokeColor=#ff0000;" parent="1" vertex="1">
          <mxGeometry x="30" y="1420" width="30" height="30" as="geometry" />
        </mxCell>
        <mxCell id="aSUEo56WCtGwiIv6NFB3-182" value="" style="edgeStyle=orthogonalEdgeStyle;html=1;verticalAlign=bottom;endArrow=open;endSize=8;strokeColor=#ff0000;rounded=0;entryX=0;entryY=0.5;entryDx=0;entryDy=0;" parent="1" source="aSUEo56WCtGwiIv6NFB3-181" target="aSUEo56WCtGwiIv6NFB3-188" edge="1">
          <mxGeometry relative="1" as="geometry">
            <mxPoint x="230" y="1435" as="targetPoint" />
          </mxGeometry>
        </mxCell>
        <mxCell id="aSUEo56WCtGwiIv6NFB3-189" style="edgeStyle=orthogonalEdgeStyle;rounded=0;orthogonalLoop=1;jettySize=auto;html=1;entryX=0;entryY=0.5;entryDx=0;entryDy=0;endArrow=open;endFill=0;" parent="1" source="aSUEo56WCtGwiIv6NFB3-188" target="aSUEo56WCtGwiIv6NFB3-190" edge="1">
          <mxGeometry relative="1" as="geometry">
            <mxPoint x="410" y="1435" as="targetPoint" />
          </mxGeometry>
        </mxCell>
        <mxCell id="aSUEo56WCtGwiIv6NFB3-191" value="Příchod pacienta&amp;nbsp;&lt;div&gt;do ordinace&lt;/div&gt;" style="edgeLabel;html=1;align=center;verticalAlign=middle;resizable=0;points=[];" parent="aSUEo56WCtGwiIv6NFB3-189" vertex="1" connectable="0">
          <mxGeometry x="-0.031" y="2" relative="1" as="geometry">
            <mxPoint as="offset" />
          </mxGeometry>
        </mxCell>
        <mxCell id="aSUEo56WCtGwiIv6NFB3-204" style="edgeStyle=orthogonalEdgeStyle;rounded=0;orthogonalLoop=1;jettySize=auto;html=1;exitX=0.25;exitY=1;exitDx=0;exitDy=0;endArrow=open;endFill=0;" parent="1" source="aSUEo56WCtGwiIv6NFB3-188" target="aSUEo56WCtGwiIv6NFB3-205" edge="1">
          <mxGeometry relative="1" as="geometry">
            <mxPoint x="198.88235294117658" y="1540" as="targetPoint" />
          </mxGeometry>
        </mxCell>
        <mxCell id="aSUEo56WCtGwiIv6NFB3-188" value="Čeká" style="rounded=1;whiteSpace=wrap;html=1;" parent="1" vertex="1">
          <mxGeometry x="168.94" y="1405" width="120" height="60" as="geometry" />
        </mxCell>
        <mxCell id="aSUEo56WCtGwiIv6NFB3-193" value="" style="edgeStyle=orthogonalEdgeStyle;rounded=0;orthogonalLoop=1;jettySize=auto;html=1;endArrow=open;endFill=0;" parent="1" source="aSUEo56WCtGwiIv6NFB3-190" target="aSUEo56WCtGwiIv6NFB3-192" edge="1">
          <mxGeometry relative="1" as="geometry" />
        </mxCell>
        <mxCell id="aSUEo56WCtGwiIv6NFB3-199" style="edgeStyle=orthogonalEdgeStyle;rounded=0;orthogonalLoop=1;jettySize=auto;html=1;exitX=0.25;exitY=0;exitDx=0;exitDy=0;entryX=0.5;entryY=0;entryDx=0;entryDy=0;endArrow=open;endFill=0;" parent="1" source="aSUEo56WCtGwiIv6NFB3-190" target="aSUEo56WCtGwiIv6NFB3-188" edge="1">
          <mxGeometry relative="1" as="geometry">
            <Array as="points">
              <mxPoint x="467" y="1350" />
              <mxPoint x="229" y="1350" />
            </Array>
          </mxGeometry>
        </mxCell>
        <mxCell id="aSUEo56WCtGwiIv6NFB3-200" value="Nelze určit,&amp;nbsp;&lt;div&gt;pacient odeslán na jiné oddělení&lt;/div&gt;" style="edgeLabel;html=1;align=center;verticalAlign=middle;resizable=0;points=[];" parent="aSUEo56WCtGwiIv6NFB3-199" vertex="1" connectable="0">
          <mxGeometry x="-0.1795" y="-2" relative="1" as="geometry">
            <mxPoint x="-26" as="offset" />
          </mxGeometry>
        </mxCell>
        <mxCell id="aSUEo56WCtGwiIv6NFB3-190" value="Vyšetření" style="rounded=1;whiteSpace=wrap;html=1;" parent="1" vertex="1">
          <mxGeometry x="436.94" y="1405" width="120" height="60" as="geometry" />
        </mxCell>
        <mxCell id="aSUEo56WCtGwiIv6NFB3-194" style="edgeStyle=orthogonalEdgeStyle;rounded=0;orthogonalLoop=1;jettySize=auto;html=1;entryX=0.5;entryY=1;entryDx=0;entryDy=0;endArrow=open;endFill=0;" parent="1" source="aSUEo56WCtGwiIv6NFB3-192" target="aSUEo56WCtGwiIv6NFB3-188" edge="1">
          <mxGeometry relative="1" as="geometry">
            <Array as="points">
              <mxPoint x="712" y="1500" />
              <mxPoint x="229" y="1500" />
            </Array>
          </mxGeometry>
        </mxCell>
        <mxCell id="aSUEo56WCtGwiIv6NFB3-195" value="Diagnóza určena, pacient zaléčen" style="edgeLabel;html=1;align=center;verticalAlign=middle;resizable=0;points=[];" parent="aSUEo56WCtGwiIv6NFB3-194" vertex="1" connectable="0">
          <mxGeometry x="-0.1306" y="-3" relative="1" as="geometry">
            <mxPoint as="offset" />
          </mxGeometry>
        </mxCell>
        <mxCell id="aSUEo56WCtGwiIv6NFB3-196" style="edgeStyle=orthogonalEdgeStyle;rounded=0;orthogonalLoop=1;jettySize=auto;html=1;entryX=0.5;entryY=0;entryDx=0;entryDy=0;endArrow=open;endFill=0;" parent="1" source="aSUEo56WCtGwiIv6NFB3-192" target="aSUEo56WCtGwiIv6NFB3-190" edge="1">
          <mxGeometry relative="1" as="geometry">
            <Array as="points">
              <mxPoint x="712" y="1350" />
              <mxPoint x="497" y="1350" />
            </Array>
          </mxGeometry>
        </mxCell>
        <mxCell id="aSUEo56WCtGwiIv6NFB3-197" value="Diagnóza neurčena,&amp;nbsp;&lt;div&gt;další vyšetření&lt;/div&gt;" style="edgeLabel;html=1;align=center;verticalAlign=middle;resizable=0;points=[];" parent="aSUEo56WCtGwiIv6NFB3-196" vertex="1" connectable="0">
          <mxGeometry x="0.11" y="3" relative="1" as="geometry">
            <mxPoint as="offset" />
          </mxGeometry>
        </mxCell>
        <mxCell id="aSUEo56WCtGwiIv6NFB3-202" style="edgeStyle=orthogonalEdgeStyle;rounded=0;orthogonalLoop=1;jettySize=auto;html=1;entryX=0.25;entryY=0;entryDx=0;entryDy=0;endArrow=open;endFill=0;" parent="1" source="aSUEo56WCtGwiIv6NFB3-192" target="aSUEo56WCtGwiIv6NFB3-188" edge="1">
          <mxGeometry relative="1" as="geometry">
            <Array as="points">
              <mxPoint x="742" y="1310" />
              <mxPoint x="199" y="1310" />
            </Array>
          </mxGeometry>
        </mxCell>
        <mxCell id="aSUEo56WCtGwiIv6NFB3-203" value="Pacient simuluje, bez diagnózy" style="edgeLabel;html=1;align=center;verticalAlign=middle;resizable=0;points=[];" parent="aSUEo56WCtGwiIv6NFB3-202" vertex="1" connectable="0">
          <mxGeometry x="-0.5878" y="3" relative="1" as="geometry">
            <mxPoint x="-47" as="offset" />
          </mxGeometry>
        </mxCell>
        <mxCell id="aSUEo56WCtGwiIv6NFB3-192" value="Určování diagnózy" style="whiteSpace=wrap;html=1;rounded=1;" parent="1" vertex="1">
          <mxGeometry x="651.94" y="1405" width="120" height="60" as="geometry" />
        </mxCell>
        <mxCell id="aSUEo56WCtGwiIv6NFB3-205" value="" style="ellipse;html=1;shape=endState;fillColor=#000000;strokeColor=#ff0000;" parent="1" vertex="1">
          <mxGeometry x="184.94235294117658" y="1534" width="30" height="30" as="geometry" />
        </mxCell>
        <mxCell id="aSUEo56WCtGwiIv6NFB3-206" value="Konec pracovní&amp;nbsp;&lt;div&gt;doby 8h&lt;/div&gt;" style="edgeLabel;html=1;align=center;verticalAlign=middle;resizable=0;points=[];" parent="1" vertex="1" connectable="0">
          <mxGeometry x="139.93944197545574" y="1520" as="geometry">
            <mxPoint x="4" y="-6" as="offset" />
          </mxGeometry>
        </mxCell>
        <mxCell id="aSUEo56WCtGwiIv6NFB3-207" value="&lt;font style=&quot;font-size: 18px;&quot;&gt;Diagram aktivity: průběh operace&lt;/font&gt;" style="text;align=center;fontStyle=1;verticalAlign=middle;spacingLeft=3;spacingRight=3;strokeColor=none;rotatable=0;points=[[0,0.5],[1,0.5]];portConstraint=eastwest;html=1;" parent="1" vertex="1">
          <mxGeometry x="99.94000000000005" y="1930" width="180" height="60" as="geometry" />
        </mxCell>
        <mxCell id="aSUEo56WCtGwiIv6NFB3-216" style="edgeStyle=orthogonalEdgeStyle;rounded=0;orthogonalLoop=1;jettySize=auto;html=1;entryX=0;entryY=0.5;entryDx=0;entryDy=0;strokeColor=#FF1212;endArrow=open;endFill=0;" parent="1" source="aSUEo56WCtGwiIv6NFB3-208" target="aSUEo56WCtGwiIv6NFB3-219" edge="1">
          <mxGeometry relative="1" as="geometry">
            <mxPoint x="170" y="2070" as="targetPoint" />
          </mxGeometry>
        </mxCell>
        <mxCell id="aSUEo56WCtGwiIv6NFB3-208" value="" style="ellipse;html=1;shape=startState;fillColor=#000000;strokeColor=#ff0000;" parent="1" vertex="1">
          <mxGeometry x="60" y="2105" width="30" height="30" as="geometry" />
        </mxCell>
        <mxCell id="aSUEo56WCtGwiIv6NFB3-254" value="" style="edgeStyle=orthogonalEdgeStyle;rounded=0;orthogonalLoop=1;jettySize=auto;html=1;endArrow=open;endFill=0;entryX=0.5;entryY=0;entryDx=0;entryDy=0;" parent="1" source="aSUEo56WCtGwiIv6NFB3-214" target="KpcfCLGa6EgmdpRcnr-3-1" edge="1">
          <mxGeometry relative="1" as="geometry">
            <mxPoint x="560" y="2269" as="targetPoint" />
          </mxGeometry>
        </mxCell>
        <mxCell id="aSUEo56WCtGwiIv6NFB3-214" value="Předoperační vyšetření" style="rounded=1;whiteSpace=wrap;html=1;" parent="1" vertex="1">
          <mxGeometry x="490.94000000000005" y="2160" width="120" height="60" as="geometry" />
        </mxCell>
        <mxCell id="aSUEo56WCtGwiIv6NFB3-223" value="" style="edgeStyle=orthogonalEdgeStyle;rounded=0;orthogonalLoop=1;jettySize=auto;html=1;entryX=0;entryY=0.5;entryDx=0;entryDy=0;endArrow=open;endFill=0;" parent="1" source="aSUEo56WCtGwiIv6NFB3-215" target="aSUEo56WCtGwiIv6NFB3-224" edge="1">
          <mxGeometry relative="1" as="geometry">
            <mxPoint x="539.94" y="2029.9999999999995" as="targetPoint" />
          </mxGeometry>
        </mxCell>
        <mxCell id="aSUEo56WCtGwiIv6NFB3-215" value="Kontrola životních funkcí" style="rounded=1;whiteSpace=wrap;html=1;" parent="1" vertex="1">
          <mxGeometry x="310.94" y="2000" width="120" height="60" as="geometry" />
        </mxCell>
        <mxCell id="aSUEo56WCtGwiIv6NFB3-220" style="edgeStyle=orthogonalEdgeStyle;rounded=0;orthogonalLoop=1;jettySize=auto;html=1;entryX=0;entryY=0.5;entryDx=0;entryDy=0;exitX=0.5;exitY=0;exitDx=0;exitDy=0;endArrow=open;endFill=0;" parent="1" source="aSUEo56WCtGwiIv6NFB3-219" target="aSUEo56WCtGwiIv6NFB3-215" edge="1">
          <mxGeometry relative="1" as="geometry">
            <mxPoint x="250" y="2070" as="sourcePoint" />
            <Array as="points">
              <mxPoint x="200" y="2030" />
            </Array>
          </mxGeometry>
        </mxCell>
        <mxCell id="aSUEo56WCtGwiIv6NFB3-221" value="Úraz" style="edgeLabel;html=1;align=center;verticalAlign=middle;resizable=0;points=[];" parent="aSUEo56WCtGwiIv6NFB3-220" vertex="1" connectable="0">
          <mxGeometry x="-0.6597" y="2" relative="1" as="geometry">
            <mxPoint as="offset" />
          </mxGeometry>
        </mxCell>
        <mxCell id="aSUEo56WCtGwiIv6NFB3-245" style="edgeStyle=orthogonalEdgeStyle;rounded=0;orthogonalLoop=1;jettySize=auto;html=1;entryX=0;entryY=0.5;entryDx=0;entryDy=0;endArrow=open;endFill=0;" parent="1" target="aSUEo56WCtGwiIv6NFB3-214" edge="1">
          <mxGeometry relative="1" as="geometry">
            <mxPoint x="490.94000000000005" y="2202.9999999999995" as="targetPoint" />
            <mxPoint x="199.9411764705883" y="2157.9988235294118" as="sourcePoint" />
            <Array as="points">
              <mxPoint x="200" y="2190" />
            </Array>
          </mxGeometry>
        </mxCell>
        <mxCell id="aSUEo56WCtGwiIv6NFB3-248" value="Plánovaná&amp;nbsp;&lt;div&gt;operace&lt;/div&gt;" style="edgeLabel;html=1;align=center;verticalAlign=middle;resizable=0;points=[];" parent="aSUEo56WCtGwiIv6NFB3-245" vertex="1" connectable="0">
          <mxGeometry x="-0.2911" y="-4" relative="1" as="geometry">
            <mxPoint as="offset" />
          </mxGeometry>
        </mxCell>
        <mxCell id="aSUEo56WCtGwiIv6NFB3-219" value="Typ&amp;nbsp;&lt;div&gt;operace&lt;/div&gt;" style="rhombus;whiteSpace=wrap;html=1;" parent="1" vertex="1">
          <mxGeometry x="159.94" y="2080" width="80" height="80" as="geometry" />
        </mxCell>
        <mxCell id="aSUEo56WCtGwiIv6NFB3-229" style="edgeStyle=orthogonalEdgeStyle;rounded=0;orthogonalLoop=1;jettySize=auto;html=1;endArrow=open;endFill=0;entryX=0.5;entryY=0;entryDx=0;entryDy=0;" parent="1" source="aSUEo56WCtGwiIv6NFB3-224" target="aSUEo56WCtGwiIv6NFB3-214" edge="1">
          <mxGeometry relative="1" as="geometry">
            <mxPoint x="630" y="2150" as="targetPoint" />
            <Array as="points">
              <mxPoint x="550" y="2109" />
              <mxPoint x="551" y="2109" />
            </Array>
          </mxGeometry>
        </mxCell>
        <mxCell id="aSUEo56WCtGwiIv6NFB3-230" value="funkce OK" style="edgeLabel;html=1;align=center;verticalAlign=middle;resizable=0;points=[];" parent="aSUEo56WCtGwiIv6NFB3-229" vertex="1" connectable="0">
          <mxGeometry x="-0.2307" y="-5" relative="1" as="geometry">
            <mxPoint x="3" y="-5" as="offset" />
          </mxGeometry>
        </mxCell>
        <mxCell id="aSUEo56WCtGwiIv6NFB3-240" style="edgeStyle=orthogonalEdgeStyle;rounded=0;orthogonalLoop=1;jettySize=auto;html=1;entryX=1;entryY=0.5;entryDx=0;entryDy=0;" parent="1" source="aSUEo56WCtGwiIv6NFB3-224" target="aSUEo56WCtGwiIv6NFB3-294" edge="1">
          <mxGeometry relative="1" as="geometry">
            <mxPoint x="550" y="1939" as="targetPoint" />
            <Array as="points">
              <mxPoint x="850" y="2030" />
              <mxPoint x="850" y="3185" />
            </Array>
          </mxGeometry>
        </mxCell>
        <mxCell id="aSUEo56WCtGwiIv6NFB3-241" value="NOK, Exitus" style="edgeLabel;html=1;align=center;verticalAlign=middle;resizable=0;points=[];" parent="aSUEo56WCtGwiIv6NFB3-240" vertex="1" connectable="0">
          <mxGeometry x="-0.1969" relative="1" as="geometry">
            <mxPoint x="-201" y="-424" as="offset" />
          </mxGeometry>
        </mxCell>
        <mxCell id="aSUEo56WCtGwiIv6NFB3-224" value="Výsledek?" style="rhombus;whiteSpace=wrap;html=1;" parent="1" vertex="1">
          <mxGeometry x="509.94" y="1990" width="80" height="80" as="geometry" />
        </mxCell>
        <mxCell id="aSUEo56WCtGwiIv6NFB3-249" value="Příjem pacienta" style="edgeLabel;html=1;align=center;verticalAlign=middle;resizable=0;points=[];" parent="1" vertex="1" connectable="0">
          <mxGeometry x="71.99944197545574" y="2158" as="geometry">
            <mxPoint x="4" y="-6" as="offset" />
          </mxGeometry>
        </mxCell>
        <mxCell id="aSUEo56WCtGwiIv6NFB3-255" style="edgeStyle=orthogonalEdgeStyle;rounded=0;orthogonalLoop=1;jettySize=auto;html=1;entryX=1;entryY=0.5;entryDx=0;entryDy=0;endArrow=open;endFill=0;exitX=1;exitY=0.5;exitDx=0;exitDy=0;" parent="1" source="KpcfCLGa6EgmdpRcnr-3-1" target="aSUEo56WCtGwiIv6NFB3-214" edge="1">
          <mxGeometry relative="1" as="geometry">
            <Array as="points">
              <mxPoint x="710" y="2324" />
              <mxPoint x="710" y="2190" />
            </Array>
            <mxPoint x="610.94" y="2330" as="sourcePoint" />
          </mxGeometry>
        </mxCell>
        <mxCell id="aSUEo56WCtGwiIv6NFB3-256" value="Něco chybí" style="edgeLabel;html=1;align=center;verticalAlign=middle;resizable=0;points=[];" parent="aSUEo56WCtGwiIv6NFB3-255" vertex="1" connectable="0">
          <mxGeometry x="-0.6748" y="2" relative="1" as="geometry">
            <mxPoint x="-12" y="2" as="offset" />
          </mxGeometry>
        </mxCell>
        <mxCell id="aSUEo56WCtGwiIv6NFB3-258" style="edgeStyle=orthogonalEdgeStyle;rounded=0;orthogonalLoop=1;jettySize=auto;html=1;endArrow=open;endFill=0;exitX=0;exitY=0.5;exitDx=0;exitDy=0;" parent="1" source="KpcfCLGa6EgmdpRcnr-3-1" edge="1">
          <mxGeometry relative="1" as="geometry">
            <mxPoint x="491" y="2327" as="sourcePoint" />
            <mxPoint x="210" y="3099" as="targetPoint" />
            <Array as="points">
              <mxPoint x="210" y="2324" />
            </Array>
          </mxGeometry>
        </mxCell>
        <mxCell id="aSUEo56WCtGwiIv6NFB3-259" value="Výsledky nevyhovují,&amp;nbsp;&lt;div&gt;zákrok zrušen&lt;/div&gt;" style="edgeLabel;html=1;align=center;verticalAlign=middle;resizable=0;points=[];" parent="aSUEo56WCtGwiIv6NFB3-258" vertex="1" connectable="0">
          <mxGeometry x="0.016" y="-4" relative="1" as="geometry">
            <mxPoint x="147" as="offset" />
          </mxGeometry>
        </mxCell>
        <mxCell id="w1A6xGVqq-bpujJARa9G-4" value="Špatný" style="edgeLabel;html=1;align=center;verticalAlign=middle;resizable=0;points=[];" parent="aSUEo56WCtGwiIv6NFB3-258" vertex="1" connectable="0">
          <mxGeometry x="-0.8619" y="2" relative="1" as="geometry">
            <mxPoint x="32" as="offset" />
          </mxGeometry>
        </mxCell>
        <mxCell id="aSUEo56WCtGwiIv6NFB3-262" value="" style="edgeStyle=orthogonalEdgeStyle;rounded=0;orthogonalLoop=1;jettySize=auto;html=1;endArrow=open;endFill=0;exitX=0.5;exitY=1;exitDx=0;exitDy=0;entryX=0.5;entryY=0;entryDx=0;entryDy=0;" parent="1" source="KpcfCLGa6EgmdpRcnr-3-1" target="w1A6xGVqq-bpujJARa9G-2" edge="1">
          <mxGeometry relative="1" as="geometry">
            <mxPoint x="551" y="2369" as="sourcePoint" />
            <mxPoint x="550" y="2419" as="targetPoint" />
          </mxGeometry>
        </mxCell>
        <mxCell id="w1A6xGVqq-bpujJARa9G-5" value="Ok" style="edgeLabel;html=1;align=center;verticalAlign=middle;resizable=0;points=[];" parent="aSUEo56WCtGwiIv6NFB3-262" vertex="1" connectable="0">
          <mxGeometry x="-0.1237" y="-2" relative="1" as="geometry">
            <mxPoint as="offset" />
          </mxGeometry>
        </mxCell>
        <mxCell id="aSUEo56WCtGwiIv6NFB3-264" style="edgeStyle=orthogonalEdgeStyle;rounded=0;orthogonalLoop=1;jettySize=auto;html=1;entryX=0.5;entryY=1;entryDx=0;entryDy=0;endArrow=open;endFill=0;exitX=0;exitY=0.5;exitDx=0;exitDy=0;" parent="1" source="w1A6xGVqq-bpujJARa9G-2" target="aSUEo56WCtGwiIv6NFB3-215" edge="1">
          <mxGeometry relative="1" as="geometry">
            <mxPoint x="480" y="2470" as="sourcePoint" />
          </mxGeometry>
        </mxCell>
        <mxCell id="aSUEo56WCtGwiIv6NFB3-265" value="Špatná reakce,&amp;nbsp;&lt;div&gt;zástava&lt;/div&gt;" style="edgeLabel;html=1;align=center;verticalAlign=middle;resizable=0;points=[];" parent="aSUEo56WCtGwiIv6NFB3-264" vertex="1" connectable="0">
          <mxGeometry x="-0.6748" y="4" relative="1" as="geometry">
            <mxPoint x="22" as="offset" />
          </mxGeometry>
        </mxCell>
        <mxCell id="aSUEo56WCtGwiIv6NFB3-269" value="" style="edgeStyle=orthogonalEdgeStyle;rounded=0;orthogonalLoop=1;jettySize=auto;html=1;endArrow=open;endFill=0;exitX=0.5;exitY=1;exitDx=0;exitDy=0;" parent="1" source="w1A6xGVqq-bpujJARa9G-2" target="aSUEo56WCtGwiIv6NFB3-268" edge="1">
          <mxGeometry relative="1" as="geometry">
            <Array as="points">
              <mxPoint x="551" y="2518" />
              <mxPoint x="551" y="2529" />
              <mxPoint x="550" y="2529" />
            </Array>
            <mxPoint x="551" y="2525" as="sourcePoint" />
          </mxGeometry>
        </mxCell>
        <mxCell id="w1A6xGVqq-bpujJARa9G-3" value="Ok" style="edgeLabel;html=1;align=center;verticalAlign=middle;resizable=0;points=[];" parent="aSUEo56WCtGwiIv6NFB3-269" vertex="1" connectable="0">
          <mxGeometry x="0.4872" y="2" relative="1" as="geometry">
            <mxPoint x="-1" y="-27" as="offset" />
          </mxGeometry>
        </mxCell>
        <mxCell id="aSUEo56WCtGwiIv6NFB3-272" value="" style="edgeStyle=orthogonalEdgeStyle;rounded=0;orthogonalLoop=1;jettySize=auto;html=1;endArrow=open;endFill=0;" parent="1" source="aSUEo56WCtGwiIv6NFB3-268" target="aSUEo56WCtGwiIv6NFB3-271" edge="1">
          <mxGeometry relative="1" as="geometry">
            <Array as="points">
              <mxPoint x="549.94" y="2658" />
              <mxPoint x="549.94" y="2658" />
            </Array>
          </mxGeometry>
        </mxCell>
        <mxCell id="aSUEo56WCtGwiIv6NFB3-268" value="Kontrola anesteziologem" style="rounded=1;whiteSpace=wrap;html=1;" parent="1" vertex="1">
          <mxGeometry x="489.88000000000005" y="2569" width="120" height="60" as="geometry" />
        </mxCell>
        <mxCell id="aSUEo56WCtGwiIv6NFB3-274" value="" style="edgeStyle=orthogonalEdgeStyle;rounded=0;orthogonalLoop=1;jettySize=auto;html=1;endArrow=open;endFill=0;" parent="1" source="aSUEo56WCtGwiIv6NFB3-271" target="aSUEo56WCtGwiIv6NFB3-273" edge="1">
          <mxGeometry relative="1" as="geometry" />
        </mxCell>
        <mxCell id="aSUEo56WCtGwiIv6NFB3-271" value="Chirurgický zákrok" style="rounded=1;whiteSpace=wrap;html=1;" parent="1" vertex="1">
          <mxGeometry x="490.88000000000005" y="2669" width="120" height="60" as="geometry" />
        </mxCell>
        <mxCell id="aSUEo56WCtGwiIv6NFB3-275" style="edgeStyle=orthogonalEdgeStyle;rounded=0;orthogonalLoop=1;jettySize=auto;html=1;entryX=1;entryY=0.5;entryDx=0;entryDy=0;endArrow=open;endFill=0;" parent="1" source="aSUEo56WCtGwiIv6NFB3-273" target="aSUEo56WCtGwiIv6NFB3-268" edge="1">
          <mxGeometry relative="1" as="geometry">
            <Array as="points">
              <mxPoint x="799.94" y="2809" />
              <mxPoint x="799.94" y="2599" />
            </Array>
          </mxGeometry>
        </mxCell>
        <mxCell id="aSUEo56WCtGwiIv6NFB3-276" value="Ano, zvýšení tlaku" style="edgeLabel;html=1;align=center;verticalAlign=middle;resizable=0;points=[];" parent="aSUEo56WCtGwiIv6NFB3-275" vertex="1" connectable="0">
          <mxGeometry x="-0.7461" y="-1" relative="1" as="geometry">
            <mxPoint as="offset" />
          </mxGeometry>
        </mxCell>
        <mxCell id="aSUEo56WCtGwiIv6NFB3-277" style="edgeStyle=orthogonalEdgeStyle;rounded=0;orthogonalLoop=1;jettySize=auto;html=1;entryX=0;entryY=0.5;entryDx=0;entryDy=0;endArrow=open;endFill=0;" parent="1" source="aSUEo56WCtGwiIv6NFB3-273" target="aSUEo56WCtGwiIv6NFB3-271" edge="1">
          <mxGeometry relative="1" as="geometry">
            <Array as="points">
              <mxPoint x="349.94" y="2809" />
              <mxPoint x="349.94" y="2699" />
            </Array>
          </mxGeometry>
        </mxCell>
        <mxCell id="aSUEo56WCtGwiIv6NFB3-278" value="Ano, chyba chirurga" style="edgeLabel;html=1;align=center;verticalAlign=middle;resizable=0;points=[];" parent="aSUEo56WCtGwiIv6NFB3-277" vertex="1" connectable="0">
          <mxGeometry x="-0.6365" y="1" relative="1" as="geometry">
            <mxPoint as="offset" />
          </mxGeometry>
        </mxCell>
        <mxCell id="aSUEo56WCtGwiIv6NFB3-280" value="" style="edgeStyle=orthogonalEdgeStyle;rounded=0;orthogonalLoop=1;jettySize=auto;html=1;entryX=0.5;entryY=0;entryDx=0;entryDy=0;endArrow=open;endFill=0;" parent="1" source="aSUEo56WCtGwiIv6NFB3-273" target="aSUEo56WCtGwiIv6NFB3-289" edge="1">
          <mxGeometry relative="1" as="geometry">
            <mxPoint x="550.8800000000001" y="2898.9999999999995" as="targetPoint" />
          </mxGeometry>
        </mxCell>
        <mxCell id="aSUEo56WCtGwiIv6NFB3-288" value="Ne" style="edgeLabel;html=1;align=center;verticalAlign=middle;resizable=0;points=[];" parent="aSUEo56WCtGwiIv6NFB3-280" vertex="1" connectable="0">
          <mxGeometry x="-0.3365" y="2" relative="1" as="geometry">
            <mxPoint as="offset" />
          </mxGeometry>
        </mxCell>
        <mxCell id="aSUEo56WCtGwiIv6NFB3-273" value="Krvácení?" style="rhombus;whiteSpace=wrap;html=1;" parent="1" vertex="1">
          <mxGeometry x="510.88" y="2769" width="80" height="80" as="geometry" />
        </mxCell>
        <mxCell id="aSUEo56WCtGwiIv6NFB3-291" style="edgeStyle=orthogonalEdgeStyle;rounded=0;orthogonalLoop=1;jettySize=auto;html=1;entryX=0.5;entryY=0;entryDx=0;entryDy=0;endArrow=open;endFill=0;" parent="1" edge="1">
          <mxGeometry relative="1" as="geometry">
            <mxPoint x="551.38" y="2979" as="sourcePoint" />
            <mxPoint x="550.4200000000001" y="3029" as="targetPoint" />
            <Array as="points">
              <mxPoint x="551" y="3009" />
              <mxPoint x="550" y="3009" />
            </Array>
          </mxGeometry>
        </mxCell>
        <mxCell id="aSUEo56WCtGwiIv6NFB3-289" value="zašití rány" style="rounded=1;whiteSpace=wrap;html=1;" parent="1" vertex="1">
          <mxGeometry x="490.88000000000005" y="2919" width="120" height="60" as="geometry" />
        </mxCell>
        <mxCell id="aSUEo56WCtGwiIv6NFB3-292" style="edgeStyle=orthogonalEdgeStyle;rounded=0;orthogonalLoop=1;jettySize=auto;html=1;endArrow=open;endFill=0;entryX=0;entryY=0.5;entryDx=0;entryDy=0;exitX=0;exitY=0.5;exitDx=0;exitDy=0;" parent="1" source="aSUEo56WCtGwiIv6NFB3-290" target="aSUEo56WCtGwiIv6NFB3-294" edge="1">
          <mxGeometry relative="1" as="geometry">
            <mxPoint x="209.94000000000005" y="2480" as="targetPoint" />
            <Array as="points">
              <mxPoint x="210" y="3069" />
              <mxPoint x="210" y="3185" />
            </Array>
          </mxGeometry>
        </mxCell>
        <mxCell id="aSUEo56WCtGwiIv6NFB3-293" value="Ne, exitus" style="edgeLabel;html=1;align=center;verticalAlign=middle;resizable=0;points=[];" parent="aSUEo56WCtGwiIv6NFB3-292" vertex="1" connectable="0">
          <mxGeometry x="-0.7799" y="3" relative="1" as="geometry">
            <mxPoint as="offset" />
          </mxGeometry>
        </mxCell>
        <mxCell id="aSUEo56WCtGwiIv6NFB3-295" style="edgeStyle=orthogonalEdgeStyle;rounded=0;orthogonalLoop=1;jettySize=auto;html=1;endArrow=open;endFill=0;" parent="1" source="aSUEo56WCtGwiIv6NFB3-290" edge="1">
          <mxGeometry relative="1" as="geometry">
            <mxPoint x="549.8800000000001" y="3189" as="targetPoint" />
          </mxGeometry>
        </mxCell>
        <mxCell id="aSUEo56WCtGwiIv6NFB3-296" value="Ano, operace dokončena" style="edgeLabel;html=1;align=center;verticalAlign=middle;resizable=0;points=[];" parent="aSUEo56WCtGwiIv6NFB3-295" vertex="1" connectable="0">
          <mxGeometry x="-0.2" y="2" relative="1" as="geometry">
            <mxPoint as="offset" />
          </mxGeometry>
        </mxCell>
        <mxCell id="aSUEo56WCtGwiIv6NFB3-290" value="Vzbudil se pacient?" style="rhombus;whiteSpace=wrap;html=1;" parent="1" vertex="1">
          <mxGeometry x="509.88" y="3029" width="80" height="80" as="geometry" />
        </mxCell>
        <mxCell id="aSUEo56WCtGwiIv6NFB3-294" value="" style="ellipse;html=1;shape=endState;fillColor=#000000;strokeColor=#ff0000;" parent="1" vertex="1">
          <mxGeometry x="534.94" y="3170" width="30" height="30" as="geometry" />
        </mxCell>
        <mxCell id="aSUEo56WCtGwiIv6NFB3-297" value="Zrušení operace" style="edgeLabel;html=1;align=center;verticalAlign=middle;resizable=0;points=[];" parent="1" vertex="1" connectable="0">
          <mxGeometry x="159.93944197545574" y="2539" as="geometry">
            <mxPoint x="4" y="-6" as="offset" />
          </mxGeometry>
        </mxCell>
        <mxCell id="aSUEo56WCtGwiIv6NFB3-298" value="Konec operace" style="edgeLabel;html=1;align=center;verticalAlign=middle;resizable=0;points=[];" parent="1" vertex="1" connectable="0">
          <mxGeometry x="547.9394419754558" y="3219" as="geometry">
            <mxPoint x="4" y="-6" as="offset" />
          </mxGeometry>
        </mxCell>
        <mxCell id="KpcfCLGa6EgmdpRcnr-3-1" value="Kontrola výsledků pacienta" style="rhombus;whiteSpace=wrap;html=1;" parent="1" vertex="1">
          <mxGeometry x="490.94" y="2269" width="120" height="109" as="geometry" />
        </mxCell>
        <mxCell id="w1A6xGVqq-bpujJARa9G-2" value="Kontrola výsledků pacienta" style="rhombus;whiteSpace=wrap;html=1;" parent="1" vertex="1">
          <mxGeometry x="489.94" y="2409" width="120" height="109" as="geometry" />
        </mxCell>
        <mxCell id="3s92ANe8DcRuGHArvGQe-20" value="" style="ellipse;html=1;shape=startState;fillColor=#000000;strokeColor=#ff0000;" parent="1" vertex="1">
          <mxGeometry x="30" y="1715" width="30" height="30" as="geometry" />
        </mxCell>
        <mxCell id="3s92ANe8DcRuGHArvGQe-21" value="" style="edgeStyle=orthogonalEdgeStyle;html=1;verticalAlign=bottom;endArrow=open;endSize=8;strokeColor=#ff0000;rounded=0;entryX=0;entryY=0.5;entryDx=0;entryDy=0;" parent="1" source="3s92ANe8DcRuGHArvGQe-20" target="3s92ANe8DcRuGHArvGQe-25" edge="1">
          <mxGeometry relative="1" as="geometry">
            <mxPoint x="230" y="1730" as="targetPoint" />
          </mxGeometry>
        </mxCell>
        <mxCell id="3s92ANe8DcRuGHArvGQe-22" style="edgeStyle=orthogonalEdgeStyle;rounded=0;orthogonalLoop=1;jettySize=auto;html=1;entryX=0;entryY=0.5;entryDx=0;entryDy=0;endArrow=open;endFill=0;" parent="1" source="3s92ANe8DcRuGHArvGQe-25" target="3s92ANe8DcRuGHArvGQe-29" edge="1">
          <mxGeometry relative="1" as="geometry">
            <mxPoint x="410" y="1730" as="targetPoint" />
          </mxGeometry>
        </mxCell>
        <mxCell id="3s92ANe8DcRuGHArvGQe-23" value="Příchod pacienta&amp;nbsp;&lt;div&gt;&lt;br&gt;&lt;/div&gt;" style="edgeLabel;html=1;align=center;verticalAlign=middle;resizable=0;points=[];" parent="3s92ANe8DcRuGHArvGQe-22" vertex="1" connectable="0">
          <mxGeometry x="-0.031" y="2" relative="1" as="geometry">
            <mxPoint as="offset" />
          </mxGeometry>
        </mxCell>
        <mxCell id="3s92ANe8DcRuGHArvGQe-43" style="edgeStyle=orthogonalEdgeStyle;rounded=0;orthogonalLoop=1;jettySize=auto;html=1;exitX=0.25;exitY=1;exitDx=0;exitDy=0;entryX=0.5;entryY=0;entryDx=0;entryDy=0;" parent="1" source="3s92ANe8DcRuGHArvGQe-25" target="3s92ANe8DcRuGHArvGQe-42" edge="1">
          <mxGeometry relative="1" as="geometry">
            <Array as="points">
              <mxPoint x="200" y="1760" />
            </Array>
          </mxGeometry>
        </mxCell>
        <mxCell id="3s92ANe8DcRuGHArvGQe-25" value="Prázdné" style="rounded=1;whiteSpace=wrap;html=1;" parent="1" vertex="1">
          <mxGeometry x="168.94" y="1700" width="120" height="60" as="geometry" />
        </mxCell>
        <mxCell id="3s92ANe8DcRuGHArvGQe-26" value="" style="edgeStyle=orthogonalEdgeStyle;rounded=0;orthogonalLoop=1;jettySize=auto;html=1;endArrow=open;endFill=0;entryX=0.75;entryY=1;entryDx=0;entryDy=0;" parent="1" source="3s92ANe8DcRuGHArvGQe-29" target="3s92ANe8DcRuGHArvGQe-25" edge="1">
          <mxGeometry relative="1" as="geometry">
            <mxPoint x="651.94" y="1730" as="targetPoint" />
            <Array as="points">
              <mxPoint x="500" y="1829" />
              <mxPoint x="240" y="1829" />
              <mxPoint x="240" y="1760" />
            </Array>
          </mxGeometry>
        </mxCell>
        <mxCell id="3s92ANe8DcRuGHArvGQe-41" value="Odchod pacienta" style="edgeLabel;html=1;align=center;verticalAlign=middle;resizable=0;points=[];" parent="3s92ANe8DcRuGHArvGQe-26" vertex="1" connectable="0">
          <mxGeometry x="0.0585" y="3" relative="1" as="geometry">
            <mxPoint as="offset" />
          </mxGeometry>
        </mxCell>
        <mxCell id="3s92ANe8DcRuGHArvGQe-29" value="Obsazené" style="rounded=1;whiteSpace=wrap;html=1;" parent="1" vertex="1">
          <mxGeometry x="436.94" y="1700" width="120" height="60" as="geometry" />
        </mxCell>
        <mxCell id="3s92ANe8DcRuGHArvGQe-38" value="Konec ordinačních&amp;nbsp;&lt;div&gt;hodin&lt;/div&gt;" style="edgeLabel;html=1;align=center;verticalAlign=middle;resizable=0;points=[];" parent="1" vertex="1" connectable="0">
          <mxGeometry x="139.93944197545574" y="1809" as="geometry">
            <mxPoint x="5" as="offset" />
          </mxGeometry>
        </mxCell>
        <mxCell id="3s92ANe8DcRuGHArvGQe-39" value="&lt;font style=&quot;font-size: 18px;&quot;&gt;Třída: Pracoviště&lt;/font&gt;" style="text;align=center;fontStyle=1;verticalAlign=middle;spacingLeft=3;spacingRight=3;strokeColor=none;rotatable=0;points=[[0,0.5],[1,0.5]];portConstraint=eastwest;html=1;" parent="1" vertex="1">
          <mxGeometry x="10.000000000000057" y="1610" width="180" height="60" as="geometry" />
        </mxCell>
        <mxCell id="3s92ANe8DcRuGHArvGQe-42" value="" style="ellipse;html=1;shape=endState;fillColor=#000000;strokeColor=#ff0000;" parent="1" vertex="1">
          <mxGeometry x="184.94" y="1829" width="30" height="30" as="geometry" />
        </mxCell>
        <mxCell id="3s92ANe8DcRuGHArvGQe-44" value="&lt;font style=&quot;font-size: 18px;&quot;&gt;Use case diagram: Vyšetření pacienta&lt;/font&gt;" style="text;align=center;fontStyle=1;verticalAlign=middle;spacingLeft=3;spacingRight=3;strokeColor=none;rotatable=0;points=[[0,0.5],[1,0.5]];portConstraint=eastwest;html=1;" parent="1" vertex="1">
          <mxGeometry x="29.94" y="3248" width="360.06" height="60" as="geometry" />
        </mxCell>
        <mxCell id="3s92ANe8DcRuGHArvGQe-45" value="Lékař" style="shape=umlActor;verticalLabelPosition=bottom;verticalAlign=top;html=1;" parent="1" vertex="1">
          <mxGeometry x="72" y="3410" width="30" height="60" as="geometry" />
        </mxCell>
        <mxCell id="3s92ANe8DcRuGHArvGQe-46" value="Stanovení diagnózy" style="ellipse;whiteSpace=wrap;html=1;" parent="1" vertex="1">
          <mxGeometry x="405.94" y="3510" width="120" height="80" as="geometry" />
        </mxCell>
        <mxCell id="3s92ANe8DcRuGHArvGQe-47" value="Anamnéza" style="ellipse;whiteSpace=wrap;html=1;" parent="1" vertex="1">
          <mxGeometry x="190" y="3330" width="120" height="80" as="geometry" />
        </mxCell>
        <mxCell id="3s92ANe8DcRuGHArvGQe-48" value="Pacient" style="shape=umlActor;verticalLabelPosition=bottom;verticalAlign=top;html=1;" parent="1" vertex="1">
          <mxGeometry x="462.94" y="3370" width="32.06" height="60" as="geometry" />
        </mxCell>
        <mxCell id="3s92ANe8DcRuGHArvGQe-54" value="" style="endArrow=none;html=1;rounded=0;exitX=1;exitY=0.5;exitDx=0;exitDy=0;" parent="1" source="3s92ANe8DcRuGHArvGQe-47" target="3s92ANe8DcRuGHArvGQe-48" edge="1">
          <mxGeometry width="50" height="50" relative="1" as="geometry">
            <mxPoint x="470" y="3490" as="sourcePoint" />
            <mxPoint x="520" y="3440" as="targetPoint" />
          </mxGeometry>
        </mxCell>
        <mxCell id="3s92ANe8DcRuGHArvGQe-55" value="Vyšetření" style="ellipse;whiteSpace=wrap;html=1;" parent="1" vertex="1">
          <mxGeometry x="184.94" y="3480" width="120" height="80" as="geometry" />
        </mxCell>
        <mxCell id="3s92ANe8DcRuGHArvGQe-56" value="Zobrazovací metody (RTG, sono)" style="ellipse;whiteSpace=wrap;html=1;" parent="1" vertex="1">
          <mxGeometry x="184.94" y="3590" width="120" height="80" as="geometry" />
        </mxCell>
        <mxCell id="3s92ANe8DcRuGHArvGQe-57" value="" style="endArrow=none;html=1;rounded=0;entryX=0;entryY=0.5;entryDx=0;entryDy=0;" parent="1" target="3s92ANe8DcRuGHArvGQe-47" edge="1">
          <mxGeometry width="50" height="50" relative="1" as="geometry">
            <mxPoint x="110" y="3440" as="sourcePoint" />
            <mxPoint x="465" y="3420" as="targetPoint" />
          </mxGeometry>
        </mxCell>
        <mxCell id="3s92ANe8DcRuGHArvGQe-58" value="" style="endArrow=none;html=1;rounded=0;entryX=0;entryY=0.5;entryDx=0;entryDy=0;" parent="1" target="3s92ANe8DcRuGHArvGQe-55" edge="1">
          <mxGeometry width="50" height="50" relative="1" as="geometry">
            <mxPoint x="110" y="3450" as="sourcePoint" />
            <mxPoint x="195" y="3420" as="targetPoint" />
          </mxGeometry>
        </mxCell>
        <mxCell id="3s92ANe8DcRuGHArvGQe-59" value="" style="endArrow=none;html=1;rounded=0;entryX=0;entryY=0.5;entryDx=0;entryDy=0;" parent="1" target="3s92ANe8DcRuGHArvGQe-56" edge="1">
          <mxGeometry width="50" height="50" relative="1" as="geometry">
            <mxPoint x="110" y="3470" as="sourcePoint" />
            <mxPoint x="195" y="3530" as="targetPoint" />
          </mxGeometry>
        </mxCell>
        <mxCell id="3s92ANe8DcRuGHArvGQe-60" value="" style="endArrow=open;dashed=1;html=1;rounded=0;exitX=0.5;exitY=1;exitDx=0;exitDy=0;endFill=0;entryX=0.5;entryY=0;entryDx=0;entryDy=0;" parent="1" source="3s92ANe8DcRuGHArvGQe-47" target="3s92ANe8DcRuGHArvGQe-55" edge="1">
          <mxGeometry width="50" height="50" relative="1" as="geometry">
            <mxPoint x="460" y="3500" as="sourcePoint" />
            <mxPoint x="280" y="3470" as="targetPoint" />
          </mxGeometry>
        </mxCell>
        <mxCell id="3s92ANe8DcRuGHArvGQe-61" value="" style="endArrow=open;dashed=1;html=1;rounded=0;exitX=1;exitY=0.5;exitDx=0;exitDy=0;endFill=0;entryX=0;entryY=0.5;entryDx=0;entryDy=0;" parent="1" source="3s92ANe8DcRuGHArvGQe-55" target="3s92ANe8DcRuGHArvGQe-46" edge="1">
          <mxGeometry width="50" height="50" relative="1" as="geometry">
            <mxPoint x="260" y="3420" as="sourcePoint" />
            <mxPoint x="255" y="3490" as="targetPoint" />
          </mxGeometry>
        </mxCell>
        <mxCell id="3s92ANe8DcRuGHArvGQe-62" value="" style="endArrow=open;dashed=1;html=1;rounded=0;exitX=0.987;exitY=0.438;exitDx=0;exitDy=0;endFill=0;entryX=0.1;entryY=0.802;entryDx=0;entryDy=0;exitPerimeter=0;entryPerimeter=0;" parent="1" source="3s92ANe8DcRuGHArvGQe-56" target="3s92ANe8DcRuGHArvGQe-46" edge="1">
          <mxGeometry width="50" height="50" relative="1" as="geometry">
            <mxPoint x="315" y="3530" as="sourcePoint" />
            <mxPoint x="433" y="3540" as="targetPoint" />
          </mxGeometry>
        </mxCell>
        <mxCell id="3s92ANe8DcRuGHArvGQe-63" value="Příchod do nemocnice" style="ellipse;whiteSpace=wrap;html=1;" parent="1" vertex="1">
          <mxGeometry x="659.94" y="3375" width="120" height="80" as="geometry" />
        </mxCell>
        <mxCell id="3s92ANe8DcRuGHArvGQe-64" value="Příprava lékařských zpráv z jiných pracovišť" style="ellipse;whiteSpace=wrap;html=1;" parent="1" vertex="1">
          <mxGeometry x="659.94" y="3475" width="120" height="80" as="geometry" />
        </mxCell>
        <mxCell id="3s92ANe8DcRuGHArvGQe-65" value="Příprava seznamu léků" style="ellipse;whiteSpace=wrap;html=1;" parent="1" vertex="1">
          <mxGeometry x="659.94" y="3585" width="120" height="80" as="geometry" />
        </mxCell>
        <mxCell id="3s92ANe8DcRuGHArvGQe-66" value="Cesta do nemocnice" style="ellipse;whiteSpace=wrap;html=1;" parent="1" vertex="1">
          <mxGeometry x="542.94" y="3295" width="120" height="80" as="geometry" />
        </mxCell>
        <mxCell id="3s92ANe8DcRuGHArvGQe-67" value="" style="endArrow=none;html=1;rounded=0;entryX=0;entryY=1;entryDx=0;entryDy=0;" parent="1" target="3s92ANe8DcRuGHArvGQe-66" edge="1">
          <mxGeometry width="50" height="50" relative="1" as="geometry">
            <mxPoint x="510" y="3390" as="sourcePoint" />
            <mxPoint x="473" y="3407" as="targetPoint" />
          </mxGeometry>
        </mxCell>
        <mxCell id="3s92ANe8DcRuGHArvGQe-68" value="" style="endArrow=none;html=1;rounded=0;entryX=0;entryY=0.5;entryDx=0;entryDy=0;" parent="1" target="3s92ANe8DcRuGHArvGQe-63" edge="1">
          <mxGeometry width="50" height="50" relative="1" as="geometry">
            <mxPoint x="520" y="3410" as="sourcePoint" />
            <mxPoint x="571" y="3373" as="targetPoint" />
          </mxGeometry>
        </mxCell>
        <mxCell id="3s92ANe8DcRuGHArvGQe-69" value="" style="endArrow=none;html=1;rounded=0;entryX=0;entryY=0.5;entryDx=0;entryDy=0;" parent="1" target="3s92ANe8DcRuGHArvGQe-64" edge="1">
          <mxGeometry width="50" height="50" relative="1" as="geometry">
            <mxPoint x="510" y="3420" as="sourcePoint" />
            <mxPoint x="571" y="3373" as="targetPoint" />
          </mxGeometry>
        </mxCell>
        <mxCell id="3s92ANe8DcRuGHArvGQe-70" value="" style="endArrow=none;html=1;rounded=0;entryX=0;entryY=0;entryDx=0;entryDy=0;" parent="1" target="3s92ANe8DcRuGHArvGQe-65" edge="1">
          <mxGeometry width="50" height="50" relative="1" as="geometry">
            <mxPoint x="510" y="3440" as="sourcePoint" />
            <mxPoint x="670" y="3525" as="targetPoint" />
          </mxGeometry>
        </mxCell>
        <mxCell id="3s92ANe8DcRuGHArvGQe-71" value="Odběr krve" style="ellipse;whiteSpace=wrap;html=1;" parent="1" vertex="1">
          <mxGeometry x="180" y="3722" width="120" height="80" as="geometry" />
        </mxCell>
        <mxCell id="3s92ANe8DcRuGHArvGQe-72" value="CRP" style="ellipse;whiteSpace=wrap;html=1;" parent="1" vertex="1">
          <mxGeometry x="319.94" y="3722" width="120" height="80" as="geometry" />
        </mxCell>
        <mxCell id="3s92ANe8DcRuGHArvGQe-73" value="Odběr moči" style="ellipse;whiteSpace=wrap;html=1;" parent="1" vertex="1">
          <mxGeometry x="30" y="3722" width="120" height="80" as="geometry" />
        </mxCell>
        <mxCell id="3s92ANe8DcRuGHArvGQe-74" value="" style="endArrow=open;dashed=1;html=1;rounded=0;exitX=0.667;exitY=0.048;exitDx=0;exitDy=0;endFill=0;entryX=0;entryY=1;entryDx=0;entryDy=0;exitPerimeter=0;" parent="1" source="3s92ANe8DcRuGHArvGQe-73" target="3s92ANe8DcRuGHArvGQe-56" edge="1">
          <mxGeometry width="50" height="50" relative="1" as="geometry">
            <mxPoint x="99.94" y="3691" as="sourcePoint" />
            <mxPoint x="214.94" y="3640" as="targetPoint" />
          </mxGeometry>
        </mxCell>
        <mxCell id="3s92ANe8DcRuGHArvGQe-75" value="" style="endArrow=open;dashed=1;html=1;rounded=0;endFill=0;entryX=0.5;entryY=1;entryDx=0;entryDy=0;" parent="1" source="3s92ANe8DcRuGHArvGQe-71" target="3s92ANe8DcRuGHArvGQe-56" edge="1">
          <mxGeometry width="50" height="50" relative="1" as="geometry">
            <mxPoint x="120" y="3736" as="sourcePoint" />
            <mxPoint x="213" y="3668" as="targetPoint" />
          </mxGeometry>
        </mxCell>
        <mxCell id="3s92ANe8DcRuGHArvGQe-76" value="" style="endArrow=open;dashed=1;html=1;rounded=0;endFill=0;entryX=1;entryY=1;entryDx=0;entryDy=0;" parent="1" source="3s92ANe8DcRuGHArvGQe-72" target="3s92ANe8DcRuGHArvGQe-56" edge="1">
          <mxGeometry width="50" height="50" relative="1" as="geometry">
            <mxPoint x="252" y="3732" as="sourcePoint" />
            <mxPoint x="255" y="3680" as="targetPoint" />
          </mxGeometry>
        </mxCell>
        <mxCell id="3s92ANe8DcRuGHArvGQe-77" value="include" style="text;html=1;align=center;verticalAlign=middle;whiteSpace=wrap;rounded=0;" parent="1" vertex="1">
          <mxGeometry x="339.94" y="3600" width="60" height="30" as="geometry" />
        </mxCell>
        <mxCell id="3s92ANe8DcRuGHArvGQe-79" value="include" style="text;html=1;align=center;verticalAlign=middle;whiteSpace=wrap;rounded=0;" parent="1" vertex="1">
          <mxGeometry x="244.94" y="3425" width="60" height="30" as="geometry" />
        </mxCell>
        <mxCell id="3s92ANe8DcRuGHArvGQe-80" value="include" style="text;html=1;align=center;verticalAlign=middle;whiteSpace=wrap;rounded=0;" parent="1" vertex="1">
          <mxGeometry x="330" y="3500" width="60" height="30" as="geometry" />
        </mxCell>
        <mxCell id="3s92ANe8DcRuGHArvGQe-81" value="extend" style="text;html=1;align=center;verticalAlign=middle;whiteSpace=wrap;rounded=0;" parent="1" vertex="1">
          <mxGeometry x="319.94" y="3680" width="60" height="30" as="geometry" />
        </mxCell>
        <mxCell id="3s92ANe8DcRuGHArvGQe-82" value="extend" style="text;html=1;align=center;verticalAlign=middle;whiteSpace=wrap;rounded=0;" parent="1" vertex="1">
          <mxGeometry x="239.94" y="3692" width="60" height="30" as="geometry" />
        </mxCell>
        <mxCell id="3s92ANe8DcRuGHArvGQe-83" value="extend" style="text;html=1;align=center;verticalAlign=middle;whiteSpace=wrap;rounded=0;" parent="1" vertex="1">
          <mxGeometry x="139.94" y="3692" width="60" height="30" as="geometry" />
        </mxCell>
        <mxCell id="3s92ANe8DcRuGHArvGQe-84" value="&lt;font style=&quot;font-size: 18px;&quot;&gt;Sequence diagram: časová osa pacienta v ordinaci&amp;nbsp;&lt;/font&gt;" style="text;align=center;fontStyle=1;verticalAlign=middle;spacingLeft=3;spacingRight=3;strokeColor=none;rotatable=0;points=[[0,0.5],[1,0.5]];portConstraint=eastwest;html=1;" parent="1" vertex="1">
          <mxGeometry x="139.94" y="3860" width="240.09" height="60" as="geometry" />
        </mxCell>
        <mxCell id="3s92ANe8DcRuGHArvGQe-85" value="" style="endArrow=none;html=1;rounded=0;exitX=1;exitY=0;exitDx=0;exitDy=0;" parent="1" source="3s92ANe8DcRuGHArvGQe-55" edge="1">
          <mxGeometry width="50" height="50" relative="1" as="geometry">
            <mxPoint x="320" y="3380" as="sourcePoint" />
            <mxPoint x="460" y="3407" as="targetPoint" />
          </mxGeometry>
        </mxCell>
        <mxCell id="3s92ANe8DcRuGHArvGQe-86" value="Lékař" style="rounded=0;whiteSpace=wrap;html=1;" parent="1" vertex="1">
          <mxGeometry x="569.94" y="3940" width="120" height="60" as="geometry" />
        </mxCell>
        <mxCell id="3s92ANe8DcRuGHArvGQe-87" value="Pacient" style="rounded=0;whiteSpace=wrap;html=1;" parent="1" vertex="1">
          <mxGeometry x="79.94" y="3940" width="120" height="60" as="geometry" />
        </mxCell>
        <mxCell id="3s92ANe8DcRuGHArvGQe-88" value="" style="html=1;points=[[0,0,0,0,5],[0,1,0,0,-5],[1,0,0,0,5],[1,1,0,0,-5]];perimeter=orthogonalPerimeter;outlineConnect=0;targetShapes=umlLifeline;portConstraint=eastwest;newEdgeStyle={&quot;curved&quot;:0,&quot;rounded&quot;:0};" parent="1" vertex="1">
          <mxGeometry x="134.94" y="4000" width="10" height="70" as="geometry" />
        </mxCell>
        <mxCell id="3s92ANe8DcRuGHArvGQe-89" value="" style="endArrow=open;html=1;rounded=0;endFill=0;" parent="1" edge="1">
          <mxGeometry width="50" height="50" relative="1" as="geometry">
            <mxPoint x="144.94" y="4070" as="sourcePoint" />
            <mxPoint x="374.94" y="4070" as="targetPoint" />
          </mxGeometry>
        </mxCell>
        <mxCell id="3s92ANe8DcRuGHArvGQe-90" value="" style="html=1;points=[[0,0,0,0,5],[0,1,0,0,-5],[1,0,0,0,5],[1,1,0,0,-5]];perimeter=orthogonalPerimeter;outlineConnect=0;targetShapes=umlLifeline;portConstraint=eastwest;newEdgeStyle={&quot;curved&quot;:0,&quot;rounded&quot;:0};" parent="1" vertex="1">
          <mxGeometry x="374.94" y="4070" width="10" height="60" as="geometry" />
        </mxCell>
        <mxCell id="3s92ANe8DcRuGHArvGQe-91" value="Sestra" style="rounded=0;whiteSpace=wrap;html=1;" parent="1" vertex="1">
          <mxGeometry x="319.94" y="3940" width="120" height="60" as="geometry" />
        </mxCell>
        <mxCell id="3s92ANe8DcRuGHArvGQe-93" value="příchod pacienta do ordinace" style="text;html=1;align=center;verticalAlign=middle;whiteSpace=wrap;rounded=0;" parent="1" vertex="1">
          <mxGeometry x="180" y="4044" width="170.01" height="30" as="geometry" />
        </mxCell>
        <mxCell id="3s92ANe8DcRuGHArvGQe-94" value="Diagnóza" style="rounded=0;whiteSpace=wrap;html=1;" parent="1" vertex="1">
          <mxGeometry x="184.94000000000005" y="4120" width="120" height="60" as="geometry" />
        </mxCell>
        <mxCell id="3s92ANe8DcRuGHArvGQe-95" value="" style="endArrow=open;html=1;rounded=0;endFill=0;exitX=0;exitY=1;exitDx=0;exitDy=-5;exitPerimeter=0;entryX=0.998;entryY=0.097;entryDx=0;entryDy=0;entryPerimeter=0;" parent="1" source="3s92ANe8DcRuGHArvGQe-90" target="3s92ANe8DcRuGHArvGQe-94" edge="1">
          <mxGeometry width="50" height="50" relative="1" as="geometry">
            <mxPoint x="154.94" y="4080" as="sourcePoint" />
            <mxPoint x="340" y="4125" as="targetPoint" />
          </mxGeometry>
        </mxCell>
        <mxCell id="3s92ANe8DcRuGHArvGQe-96" value="&lt;font style=&quot;font-size: 8px;&quot;&gt;karta pacienta&lt;/font&gt;" style="text;html=1;align=center;verticalAlign=middle;whiteSpace=wrap;rounded=0;" parent="1" vertex="1">
          <mxGeometry x="260" y="4100" width="170.01" height="30" as="geometry" />
        </mxCell>
        <mxCell id="3s92ANe8DcRuGHArvGQe-97" value="" style="endArrow=none;dashed=1;html=1;rounded=0;entryX=0.534;entryY=1.023;entryDx=0;entryDy=0;entryPerimeter=0;" parent="1" edge="1">
          <mxGeometry width="50" height="50" relative="1" as="geometry">
            <mxPoint x="380.0300000000001" y="4070" as="sourcePoint" />
            <mxPoint x="380.0300000000001" y="4001.38" as="targetPoint" />
          </mxGeometry>
        </mxCell>
        <mxCell id="3s92ANe8DcRuGHArvGQe-98" value="" style="html=1;points=[[0,0,0,0,5],[0,1,0,0,-5],[1,0,0,0,5],[1,1,0,0,-5]];perimeter=orthogonalPerimeter;outlineConnect=0;targetShapes=umlLifeline;portConstraint=eastwest;newEdgeStyle={&quot;curved&quot;:0,&quot;rounded&quot;:0};" parent="1" vertex="1">
          <mxGeometry x="239.94" y="4180" width="10" height="20" as="geometry" />
        </mxCell>
        <mxCell id="3s92ANe8DcRuGHArvGQe-99" value="" style="endArrow=open;html=1;rounded=0;endFill=0;" parent="1" target="3s92ANe8DcRuGHArvGQe-101" edge="1">
          <mxGeometry width="50" height="50" relative="1" as="geometry">
            <mxPoint x="250" y="4200" as="sourcePoint" />
            <mxPoint x="594.94" y="4200" as="targetPoint" />
          </mxGeometry>
        </mxCell>
        <mxCell id="3s92ANe8DcRuGHArvGQe-100" value="" style="endArrow=none;dashed=1;html=1;rounded=0;entryX=0.5;entryY=1;entryDx=0;entryDy=0;" parent="1" target="3s92ANe8DcRuGHArvGQe-86" edge="1">
          <mxGeometry width="50" height="50" relative="1" as="geometry">
            <mxPoint x="628.94" y="4200" as="sourcePoint" />
            <mxPoint x="628.94" y="4131.38" as="targetPoint" />
          </mxGeometry>
        </mxCell>
        <mxCell id="3s92ANe8DcRuGHArvGQe-101" value="" style="html=1;points=[[0,0,0,0,5],[0,1,0,0,-5],[1,0,0,0,5],[1,1,0,0,-5]];perimeter=orthogonalPerimeter;outlineConnect=0;targetShapes=umlLifeline;portConstraint=eastwest;newEdgeStyle={&quot;curved&quot;:0,&quot;rounded&quot;:0};" parent="1" vertex="1">
          <mxGeometry x="623.94" y="4200" width="10" height="370" as="geometry" />
        </mxCell>
        <mxCell id="3s92ANe8DcRuGHArvGQe-103" value="příchod pacienta do ordinace" style="text;html=1;align=center;verticalAlign=middle;whiteSpace=wrap;rounded=0;" parent="1" vertex="1">
          <mxGeometry x="440.87" y="4179" width="170.01" height="30" as="geometry" />
        </mxCell>
        <mxCell id="3s92ANe8DcRuGHArvGQe-104" value="Vyšetření" style="rounded=0;whiteSpace=wrap;html=1;" parent="1" vertex="1">
          <mxGeometry x="759.94" y="3940" width="120" height="60" as="geometry" />
        </mxCell>
        <mxCell id="3s92ANe8DcRuGHArvGQe-105" value="" style="endArrow=open;html=1;rounded=0;endFill=0;" parent="1" target="3s92ANe8DcRuGHArvGQe-106" edge="1">
          <mxGeometry width="50" height="50" relative="1" as="geometry">
            <mxPoint x="633.94" y="4200" as="sourcePoint" />
            <mxPoint x="760" y="4200" as="targetPoint" />
          </mxGeometry>
        </mxCell>
        <mxCell id="3s92ANe8DcRuGHArvGQe-111" value="poslech fonendoskopem" style="edgeLabel;html=1;align=center;verticalAlign=middle;resizable=0;points=[];" parent="3s92ANe8DcRuGHArvGQe-105" vertex="1" connectable="0">
          <mxGeometry x="0.0706" y="2" relative="1" as="geometry">
            <mxPoint as="offset" />
          </mxGeometry>
        </mxCell>
        <mxCell id="3s92ANe8DcRuGHArvGQe-106" value="" style="html=1;points=[[0,0,0,0,5],[0,1,0,0,-5],[1,0,0,0,5],[1,1,0,0,-5]];perimeter=orthogonalPerimeter;outlineConnect=0;targetShapes=umlLifeline;portConstraint=eastwest;newEdgeStyle={&quot;curved&quot;:0,&quot;rounded&quot;:0};" parent="1" vertex="1">
          <mxGeometry x="814.94" y="4200" width="10" height="30" as="geometry" />
        </mxCell>
        <mxCell id="3s92ANe8DcRuGHArvGQe-107" value="" style="endArrow=open;dashed=1;html=1;rounded=0;endFill=0;exitX=0;exitY=1;exitDx=0;exitDy=-5;exitPerimeter=0;" parent="1" source="3s92ANe8DcRuGHArvGQe-106" target="3s92ANe8DcRuGHArvGQe-101" edge="1">
          <mxGeometry width="50" height="50" relative="1" as="geometry">
            <mxPoint x="639" y="4230" as="sourcePoint" />
            <mxPoint x="650" y="4260" as="targetPoint" />
          </mxGeometry>
        </mxCell>
        <mxCell id="3s92ANe8DcRuGHArvGQe-108" value="Hotovo" style="edgeLabel;html=1;align=center;verticalAlign=middle;resizable=0;points=[];" parent="3s92ANe8DcRuGHArvGQe-107" vertex="1" connectable="0">
          <mxGeometry x="-0.1075" y="4" relative="1" as="geometry">
            <mxPoint as="offset" />
          </mxGeometry>
        </mxCell>
        <mxCell id="3s92ANe8DcRuGHArvGQe-112" value="" style="endArrow=open;html=1;rounded=0;endFill=0;" parent="1" edge="1">
          <mxGeometry width="50" height="50" relative="1" as="geometry">
            <mxPoint x="633.94" y="4260" as="sourcePoint" />
            <mxPoint x="815" y="4260" as="targetPoint" />
          </mxGeometry>
        </mxCell>
        <mxCell id="3s92ANe8DcRuGHArvGQe-113" value="kontrola tlaku" style="edgeLabel;html=1;align=center;verticalAlign=middle;resizable=0;points=[];" parent="3s92ANe8DcRuGHArvGQe-112" vertex="1" connectable="0">
          <mxGeometry x="0.0706" y="2" relative="1" as="geometry">
            <mxPoint as="offset" />
          </mxGeometry>
        </mxCell>
        <mxCell id="3s92ANe8DcRuGHArvGQe-114" value="" style="html=1;points=[[0,0,0,0,5],[0,1,0,0,-5],[1,0,0,0,5],[1,1,0,0,-5]];perimeter=orthogonalPerimeter;outlineConnect=0;targetShapes=umlLifeline;portConstraint=eastwest;newEdgeStyle={&quot;curved&quot;:0,&quot;rounded&quot;:0};" parent="1" vertex="1">
          <mxGeometry x="814.94" y="4260" width="10" height="30" as="geometry" />
        </mxCell>
        <mxCell id="3s92ANe8DcRuGHArvGQe-115" value="" style="endArrow=open;dashed=1;html=1;rounded=0;endFill=0;exitX=0;exitY=1;exitDx=0;exitDy=-5;exitPerimeter=0;" parent="1" edge="1">
          <mxGeometry width="50" height="50" relative="1" as="geometry">
            <mxPoint x="812.44" y="4290" as="sourcePoint" />
            <mxPoint x="631.44" y="4290" as="targetPoint" />
          </mxGeometry>
        </mxCell>
        <mxCell id="3s92ANe8DcRuGHArvGQe-116" value="Hotovo" style="edgeLabel;html=1;align=center;verticalAlign=middle;resizable=0;points=[];" parent="3s92ANe8DcRuGHArvGQe-115" vertex="1" connectable="0">
          <mxGeometry x="-0.1075" y="4" relative="1" as="geometry">
            <mxPoint as="offset" />
          </mxGeometry>
        </mxCell>
        <mxCell id="3s92ANe8DcRuGHArvGQe-117" value="" style="endArrow=open;html=1;rounded=0;endFill=0;" parent="1" edge="1">
          <mxGeometry width="50" height="50" relative="1" as="geometry">
            <mxPoint x="633.94" y="4330" as="sourcePoint" />
            <mxPoint x="815" y="4330" as="targetPoint" />
          </mxGeometry>
        </mxCell>
        <mxCell id="3s92ANe8DcRuGHArvGQe-118" value="RTG" style="edgeLabel;html=1;align=center;verticalAlign=middle;resizable=0;points=[];" parent="3s92ANe8DcRuGHArvGQe-117" vertex="1" connectable="0">
          <mxGeometry x="0.0706" y="2" relative="1" as="geometry">
            <mxPoint as="offset" />
          </mxGeometry>
        </mxCell>
        <mxCell id="3s92ANe8DcRuGHArvGQe-119" value="" style="html=1;points=[[0,0,0,0,5],[0,1,0,0,-5],[1,0,0,0,5],[1,1,0,0,-5]];perimeter=orthogonalPerimeter;outlineConnect=0;targetShapes=umlLifeline;portConstraint=eastwest;newEdgeStyle={&quot;curved&quot;:0,&quot;rounded&quot;:0};" parent="1" vertex="1">
          <mxGeometry x="814.94" y="4330" width="10" height="30" as="geometry" />
        </mxCell>
        <mxCell id="3s92ANe8DcRuGHArvGQe-120" value="" style="endArrow=open;dashed=1;html=1;rounded=0;endFill=0;exitX=0;exitY=1;exitDx=0;exitDy=-5;exitPerimeter=0;" parent="1" edge="1">
          <mxGeometry width="50" height="50" relative="1" as="geometry">
            <mxPoint x="812.44" y="4360" as="sourcePoint" />
            <mxPoint x="631.44" y="4360" as="targetPoint" />
          </mxGeometry>
        </mxCell>
        <mxCell id="3s92ANe8DcRuGHArvGQe-121" value="Hotovo" style="edgeLabel;html=1;align=center;verticalAlign=middle;resizable=0;points=[];" parent="3s92ANe8DcRuGHArvGQe-120" vertex="1" connectable="0">
          <mxGeometry x="-0.1075" y="4" relative="1" as="geometry">
            <mxPoint as="offset" />
          </mxGeometry>
        </mxCell>
        <mxCell id="3s92ANe8DcRuGHArvGQe-122" value="" style="endArrow=open;html=1;rounded=0;endFill=0;" parent="1" edge="1">
          <mxGeometry width="50" height="50" relative="1" as="geometry">
            <mxPoint x="633.94" y="4400" as="sourcePoint" />
            <mxPoint x="815" y="4400" as="targetPoint" />
          </mxGeometry>
        </mxCell>
        <mxCell id="3s92ANe8DcRuGHArvGQe-123" value="Sono" style="edgeLabel;html=1;align=center;verticalAlign=middle;resizable=0;points=[];" parent="3s92ANe8DcRuGHArvGQe-122" vertex="1" connectable="0">
          <mxGeometry x="0.0706" y="2" relative="1" as="geometry">
            <mxPoint as="offset" />
          </mxGeometry>
        </mxCell>
        <mxCell id="3s92ANe8DcRuGHArvGQe-124" value="" style="html=1;points=[[0,0,0,0,5],[0,1,0,0,-5],[1,0,0,0,5],[1,1,0,0,-5]];perimeter=orthogonalPerimeter;outlineConnect=0;targetShapes=umlLifeline;portConstraint=eastwest;newEdgeStyle={&quot;curved&quot;:0,&quot;rounded&quot;:0};" parent="1" vertex="1">
          <mxGeometry x="814.94" y="4400" width="10" height="30" as="geometry" />
        </mxCell>
        <mxCell id="3s92ANe8DcRuGHArvGQe-125" value="" style="endArrow=open;dashed=1;html=1;rounded=0;endFill=0;exitX=0;exitY=1;exitDx=0;exitDy=-5;exitPerimeter=0;" parent="1" edge="1">
          <mxGeometry width="50" height="50" relative="1" as="geometry">
            <mxPoint x="814.94" y="4430" as="sourcePoint" />
            <mxPoint x="633.94" y="4430" as="targetPoint" />
          </mxGeometry>
        </mxCell>
        <mxCell id="3s92ANe8DcRuGHArvGQe-126" value="Hotovo" style="edgeLabel;html=1;align=center;verticalAlign=middle;resizable=0;points=[];" parent="3s92ANe8DcRuGHArvGQe-125" vertex="1" connectable="0">
          <mxGeometry x="-0.1075" y="4" relative="1" as="geometry">
            <mxPoint as="offset" />
          </mxGeometry>
        </mxCell>
        <mxCell id="3s92ANe8DcRuGHArvGQe-128" value="" style="endArrow=open;html=1;rounded=0;endFill=0;" parent="1" edge="1">
          <mxGeometry width="50" height="50" relative="1" as="geometry">
            <mxPoint x="633.94" y="4470" as="sourcePoint" />
            <mxPoint x="815" y="4470" as="targetPoint" />
          </mxGeometry>
        </mxCell>
        <mxCell id="3s92ANe8DcRuGHArvGQe-129" value="Odběr krve" style="edgeLabel;html=1;align=center;verticalAlign=middle;resizable=0;points=[];" parent="3s92ANe8DcRuGHArvGQe-128" vertex="1" connectable="0">
          <mxGeometry x="0.0706" y="2" relative="1" as="geometry">
            <mxPoint as="offset" />
          </mxGeometry>
        </mxCell>
        <mxCell id="3s92ANe8DcRuGHArvGQe-131" value="" style="html=1;points=[[0,0,0,0,5],[0,1,0,0,-5],[1,0,0,0,5],[1,1,0,0,-5]];perimeter=orthogonalPerimeter;outlineConnect=0;targetShapes=umlLifeline;portConstraint=eastwest;newEdgeStyle={&quot;curved&quot;:0,&quot;rounded&quot;:0};" parent="1" vertex="1">
          <mxGeometry x="814.94" y="4470" width="10" height="30" as="geometry" />
        </mxCell>
        <mxCell id="3s92ANe8DcRuGHArvGQe-132" value="" style="endArrow=open;dashed=1;html=1;rounded=0;endFill=0;exitX=0;exitY=1;exitDx=0;exitDy=-5;exitPerimeter=0;" parent="1" edge="1">
          <mxGeometry width="50" height="50" relative="1" as="geometry">
            <mxPoint x="814.94" y="4500" as="sourcePoint" />
            <mxPoint x="633.94" y="4500" as="targetPoint" />
          </mxGeometry>
        </mxCell>
        <mxCell id="3s92ANe8DcRuGHArvGQe-133" value="Hotovo" style="edgeLabel;html=1;align=center;verticalAlign=middle;resizable=0;points=[];" parent="3s92ANe8DcRuGHArvGQe-132" vertex="1" connectable="0">
          <mxGeometry x="-0.1075" y="4" relative="1" as="geometry">
            <mxPoint as="offset" />
          </mxGeometry>
        </mxCell>
        <mxCell id="3s92ANe8DcRuGHArvGQe-134" value="" style="html=1;points=[[0,0,0,0,5],[0,1,0,0,-5],[1,0,0,0,5],[1,1,0,0,-5]];perimeter=orthogonalPerimeter;outlineConnect=0;targetShapes=umlLifeline;portConstraint=eastwest;newEdgeStyle={&quot;curved&quot;:0,&quot;rounded&quot;:0};" parent="1" vertex="1">
          <mxGeometry x="814.94" y="4534" width="10" height="30" as="geometry" />
        </mxCell>
        <mxCell id="3s92ANe8DcRuGHArvGQe-135" value="" style="endArrow=open;html=1;rounded=0;endFill=0;" parent="1" edge="1">
          <mxGeometry width="50" height="50" relative="1" as="geometry">
            <mxPoint x="633.8800000000001" y="4534" as="sourcePoint" />
            <mxPoint x="814.94" y="4534" as="targetPoint" />
          </mxGeometry>
        </mxCell>
        <mxCell id="3s92ANe8DcRuGHArvGQe-136" value="Odběr moči" style="edgeLabel;html=1;align=center;verticalAlign=middle;resizable=0;points=[];" parent="3s92ANe8DcRuGHArvGQe-135" vertex="1" connectable="0">
          <mxGeometry x="0.0706" y="2" relative="1" as="geometry">
            <mxPoint as="offset" />
          </mxGeometry>
        </mxCell>
        <mxCell id="3s92ANe8DcRuGHArvGQe-137" value="" style="endArrow=open;dashed=1;html=1;rounded=0;endFill=0;exitX=0;exitY=1;exitDx=0;exitDy=-5;exitPerimeter=0;" parent="1" edge="1">
          <mxGeometry width="50" height="50" relative="1" as="geometry">
            <mxPoint x="814.94" y="4564" as="sourcePoint" />
            <mxPoint x="633.94" y="4564" as="targetPoint" />
          </mxGeometry>
        </mxCell>
        <mxCell id="3s92ANe8DcRuGHArvGQe-138" value="Hotovo" style="edgeLabel;html=1;align=center;verticalAlign=middle;resizable=0;points=[];" parent="3s92ANe8DcRuGHArvGQe-137" vertex="1" connectable="0">
          <mxGeometry x="-0.1075" y="4" relative="1" as="geometry">
            <mxPoint as="offset" />
          </mxGeometry>
        </mxCell>
        <mxCell id="3s92ANe8DcRuGHArvGQe-139" value="" style="html=1;points=[[0,0,0,0,5],[0,1,0,0,-5],[1,0,0,0,5],[1,1,0,0,-5]];perimeter=orthogonalPerimeter;outlineConnect=0;targetShapes=umlLifeline;portConstraint=eastwest;newEdgeStyle={&quot;curved&quot;:0,&quot;rounded&quot;:0};" parent="1" vertex="1">
          <mxGeometry x="239.94000000000005" y="4570" width="10" height="30" as="geometry" />
        </mxCell>
        <mxCell id="3s92ANe8DcRuGHArvGQe-140" value="" style="endArrow=none;dashed=1;html=1;rounded=0;entryX=0.5;entryY=1;entryDx=0;entryDy=0;" parent="1" source="3s92ANe8DcRuGHArvGQe-139" edge="1">
          <mxGeometry width="50" height="50" relative="1" as="geometry">
            <mxPoint x="243.88000000000005" y="4400" as="sourcePoint" />
            <mxPoint x="244.94" y="4200" as="targetPoint" />
          </mxGeometry>
        </mxCell>
        <mxCell id="3s92ANe8DcRuGHArvGQe-143" value="" style="endArrow=open;html=1;rounded=0;endFill=0;exitX=0;exitY=1;exitDx=0;exitDy=-5;exitPerimeter=0;" parent="1" edge="1">
          <mxGeometry width="50" height="50" relative="1" as="geometry">
            <mxPoint x="623.94" y="4569.52" as="sourcePoint" />
            <mxPoint x="250" y="4570" as="targetPoint" />
          </mxGeometry>
        </mxCell>
        <mxCell id="3s92ANe8DcRuGHArvGQe-144" value="Vyšetření hotovo" style="edgeLabel;html=1;align=center;verticalAlign=middle;resizable=0;points=[];" parent="3s92ANe8DcRuGHArvGQe-143" vertex="1" connectable="0">
          <mxGeometry x="-0.1075" y="4" relative="1" as="geometry">
            <mxPoint as="offset" />
          </mxGeometry>
        </mxCell>
        <mxCell id="3s92ANe8DcRuGHArvGQe-145" value="" style="html=1;points=[[0,0,0,0,5],[0,1,0,0,-5],[1,0,0,0,5],[1,1,0,0,-5]];perimeter=orthogonalPerimeter;outlineConnect=0;targetShapes=umlLifeline;portConstraint=eastwest;newEdgeStyle={&quot;curved&quot;:0,&quot;rounded&quot;:0};" parent="1" vertex="1">
          <mxGeometry x="370.03" y="4600" width="10" height="60" as="geometry" />
        </mxCell>
        <mxCell id="3s92ANe8DcRuGHArvGQe-146" value="" style="endArrow=open;html=1;rounded=0;endFill=0;" parent="1" edge="1">
          <mxGeometry width="50" height="50" relative="1" as="geometry">
            <mxPoint x="250" y="4600" as="sourcePoint" />
            <mxPoint x="370" y="4600" as="targetPoint" />
          </mxGeometry>
        </mxCell>
        <mxCell id="3s92ANe8DcRuGHArvGQe-147" value="evidence karta" style="edgeLabel;html=1;align=center;verticalAlign=middle;resizable=0;points=[];" parent="3s92ANe8DcRuGHArvGQe-146" vertex="1" connectable="0">
          <mxGeometry x="-0.1075" y="4" relative="1" as="geometry">
            <mxPoint as="offset" />
          </mxGeometry>
        </mxCell>
        <mxCell id="3s92ANe8DcRuGHArvGQe-148" value="" style="html=1;points=[[0,0,0,0,5],[0,1,0,0,-5],[1,0,0,0,5],[1,1,0,0,-5]];perimeter=orthogonalPerimeter;outlineConnect=0;targetShapes=umlLifeline;portConstraint=eastwest;newEdgeStyle={&quot;curved&quot;:0,&quot;rounded&quot;:0};" parent="1" vertex="1">
          <mxGeometry x="623.9399999999999" y="4660" width="10" height="60" as="geometry" />
        </mxCell>
        <mxCell id="3s92ANe8DcRuGHArvGQe-149" value="" style="endArrow=open;html=1;rounded=0;endFill=0;exitX=0;exitY=1;exitDx=0;exitDy=-5;exitPerimeter=0;" parent="1" edge="1">
          <mxGeometry width="50" height="50" relative="1" as="geometry">
            <mxPoint x="623.94" y="4720" as="sourcePoint" />
            <mxPoint x="141.03" y="4720" as="targetPoint" />
          </mxGeometry>
        </mxCell>
        <mxCell id="3s92ANe8DcRuGHArvGQe-150" value="Sdělení diagnózy" style="edgeLabel;html=1;align=center;verticalAlign=middle;resizable=0;points=[];" parent="3s92ANe8DcRuGHArvGQe-149" vertex="1" connectable="0">
          <mxGeometry x="-0.1075" y="4" relative="1" as="geometry">
            <mxPoint x="76" y="-4" as="offset" />
          </mxGeometry>
        </mxCell>
        <mxCell id="3s92ANe8DcRuGHArvGQe-151" value="" style="html=1;points=[[0,0,0,0,5],[0,1,0,0,-5],[1,0,0,0,5],[1,1,0,0,-5]];perimeter=orthogonalPerimeter;outlineConnect=0;targetShapes=umlLifeline;portConstraint=eastwest;newEdgeStyle={&quot;curved&quot;:0,&quot;rounded&quot;:0};" parent="1" vertex="1">
          <mxGeometry x="134.94" y="4720" width="10" height="70" as="geometry" />
        </mxCell>
        <mxCell id="3s92ANe8DcRuGHArvGQe-152" value="" style="endArrow=none;dashed=1;html=1;rounded=0;entryX=0.534;entryY=1.023;entryDx=0;entryDy=0;entryPerimeter=0;" parent="1" source="3s92ANe8DcRuGHArvGQe-151" edge="1">
          <mxGeometry width="50" height="50" relative="1" as="geometry">
            <mxPoint x="139.1100000000001" y="4138.62" as="sourcePoint" />
            <mxPoint x="139.1100000000001" y="4070" as="targetPoint" />
          </mxGeometry>
        </mxCell>
        <mxCell id="3s92ANe8DcRuGHArvGQe-153" value="" style="endArrow=open;html=1;rounded=0;endFill=0;" parent="1" source="3s92ANe8DcRuGHArvGQe-145" target="3s92ANe8DcRuGHArvGQe-148" edge="1">
          <mxGeometry width="50" height="50" relative="1" as="geometry">
            <mxPoint x="384.94" y="4660" as="sourcePoint" />
            <mxPoint x="620" y="4660" as="targetPoint" />
          </mxGeometry>
        </mxCell>
        <mxCell id="3s92ANe8DcRuGHArvGQe-155" value="" style="endArrow=none;dashed=1;html=1;rounded=0;entryX=0.534;entryY=1.023;entryDx=0;entryDy=0;entryPerimeter=0;exitX=0.5;exitY=0;exitDx=0;exitDy=0;exitPerimeter=0;" parent="1" source="3s92ANe8DcRuGHArvGQe-145" edge="1">
          <mxGeometry width="50" height="50" relative="1" as="geometry">
            <mxPoint x="379.2000000000001" y="4200" as="sourcePoint" />
            <mxPoint x="379.2000000000001" y="4131.38" as="targetPoint" />
          </mxGeometry>
        </mxCell>
        <mxCell id="3s92ANe8DcRuGHArvGQe-156" value="" style="endArrow=none;dashed=1;html=1;rounded=0;" parent="1" edge="1">
          <mxGeometry width="50" height="50" relative="1" as="geometry">
            <mxPoint x="375" y="4840" as="sourcePoint" />
            <mxPoint x="375.09" y="4660" as="targetPoint" />
          </mxGeometry>
        </mxCell>
        <mxCell id="3s92ANe8DcRuGHArvGQe-157" value="" style="endArrow=none;dashed=1;html=1;rounded=0;" parent="1" edge="1">
          <mxGeometry width="50" height="50" relative="1" as="geometry">
            <mxPoint x="139" y="4840" as="sourcePoint" />
            <mxPoint x="139.33999999999997" y="4790" as="targetPoint" />
          </mxGeometry>
        </mxCell>
        <mxCell id="3s92ANe8DcRuGHArvGQe-158" value="" style="endArrow=none;dashed=1;html=1;rounded=0;" parent="1" edge="1">
          <mxGeometry width="50" height="50" relative="1" as="geometry">
            <mxPoint x="630" y="4840" as="sourcePoint" />
            <mxPoint x="629.6899999999999" y="4720" as="targetPoint" />
          </mxGeometry>
        </mxCell>
        <mxCell id="3s92ANe8DcRuGHArvGQe-159" value="" style="endArrow=none;dashed=1;html=1;rounded=0;" parent="1" edge="1">
          <mxGeometry width="50" height="50" relative="1" as="geometry">
            <mxPoint x="629" y="4660" as="sourcePoint" />
            <mxPoint x="628.5999999999999" y="4570" as="targetPoint" />
          </mxGeometry>
        </mxCell>
        <mxCell id="3s92ANe8DcRuGHArvGQe-160" value="" style="endArrow=none;dashed=1;html=1;rounded=0;" parent="1" edge="1">
          <mxGeometry width="50" height="50" relative="1" as="geometry">
            <mxPoint x="245" y="4840" as="sourcePoint" />
            <mxPoint x="245.02999999999997" y="4600" as="targetPoint" />
          </mxGeometry>
        </mxCell>
        <mxCell id="3s92ANe8DcRuGHArvGQe-161" value="" style="endArrow=none;dashed=1;html=1;rounded=0;entryX=0.5;entryY=1;entryDx=0;entryDy=0;" parent="1" edge="1">
          <mxGeometry width="50" height="50" relative="1" as="geometry">
            <mxPoint x="819.4100000000001" y="4200" as="sourcePoint" />
            <mxPoint x="820.47" y="4000" as="targetPoint" />
          </mxGeometry>
        </mxCell>
        <mxCell id="3s92ANe8DcRuGHArvGQe-162" value="" style="endArrow=none;dashed=1;html=1;rounded=0;" parent="1" edge="1">
          <mxGeometry width="50" height="50" relative="1" as="geometry">
            <mxPoint x="820" y="4840" as="sourcePoint" />
            <mxPoint x="819.5999999999999" y="4564" as="targetPoint" />
          </mxGeometry>
        </mxCell>
        <mxCell id="3s92ANe8DcRuGHArvGQe-163" value="" style="endArrow=none;dashed=1;html=1;rounded=0;entryX=0.534;entryY=1.023;entryDx=0;entryDy=0;entryPerimeter=0;" parent="1" edge="1">
          <mxGeometry width="50" height="50" relative="1" as="geometry">
            <mxPoint x="820" y="4260" as="sourcePoint" />
            <mxPoint x="819.6000000000001" y="4230" as="targetPoint" />
          </mxGeometry>
        </mxCell>
        <mxCell id="3s92ANe8DcRuGHArvGQe-165" value="" style="endArrow=none;dashed=1;html=1;rounded=0;entryX=0.534;entryY=1.023;entryDx=0;entryDy=0;entryPerimeter=0;" parent="1" source="3s92ANe8DcRuGHArvGQe-119" edge="1">
          <mxGeometry width="50" height="50" relative="1" as="geometry">
            <mxPoint x="820.14" y="4320" as="sourcePoint" />
            <mxPoint x="819.7400000000001" y="4290" as="targetPoint" />
          </mxGeometry>
        </mxCell>
        <mxCell id="3s92ANe8DcRuGHArvGQe-166" value="" style="endArrow=none;dashed=1;html=1;rounded=0;entryX=0.534;entryY=1.023;entryDx=0;entryDy=0;entryPerimeter=0;" parent="1" edge="1">
          <mxGeometry width="50" height="50" relative="1" as="geometry">
            <mxPoint x="820.06" y="4400" as="sourcePoint" />
            <mxPoint x="819.8000000000001" y="4360" as="targetPoint" />
          </mxGeometry>
        </mxCell>
        <mxCell id="3s92ANe8DcRuGHArvGQe-167" value="" style="endArrow=none;dashed=1;html=1;rounded=0;entryX=0.534;entryY=1.023;entryDx=0;entryDy=0;entryPerimeter=0;" parent="1" edge="1">
          <mxGeometry width="50" height="50" relative="1" as="geometry">
            <mxPoint x="820.06" y="4470" as="sourcePoint" />
            <mxPoint x="819.8000000000001" y="4430" as="targetPoint" />
          </mxGeometry>
        </mxCell>
        <mxCell id="3s92ANe8DcRuGHArvGQe-168" value="" style="endArrow=none;dashed=1;html=1;rounded=0;entryX=0.534;entryY=1.023;entryDx=0;entryDy=0;entryPerimeter=0;" parent="1" source="3s92ANe8DcRuGHArvGQe-134" edge="1">
          <mxGeometry width="50" height="50" relative="1" as="geometry">
            <mxPoint x="820" y="4530" as="sourcePoint" />
            <mxPoint x="819.8000000000001" y="4500" as="targetPoint" />
          </mxGeometry>
        </mxCell>
      </root>
    </mxGraphModel>
  </diagram>
</mxfile>
